<?xml version="1.0" encoding="UTF-8"?>
<!--Generator: Apple Native CoreSVG 232.5-->
<!DOCTYPE svg
PUBLIC "-//W3C//DTD SVG 1.1//EN"
       "http://www.w3.org/Graphics/SVG/1.1/DTD/svg11.dtd">
<svg version="1.1" xmlns="http://www.w3.org/2000/svg" xmlns:xlink="http://www.w3.org/1999/xlink" width="3300" height="2200">
 <!--glyph: "", point size: 100.0, font version: "19.2d2e1", template writer version: "128"-->
 <style>.monochrome-0 {-sfsymbols-motion-group:1}
.monochrome-1 {-sfsymbols-motion-group:0}

.multicolor-0:systemRedColor {-sfsymbols-motion-group:1}
.multicolor-1:systemYellowColor {-sfsymbols-motion-group:0}

.hierarchical-0:secondary {-sfsymbols-motion-group:1}
.hierarchical-1:primary {-sfsymbols-motion-group:0}

.SFSymbolsPreviewWireframe {fill:none;opacity:1.0;stroke:black;stroke-width:0.5}
</style>
 <g id="Notes">
  <rect height="2200" id="artboard" style="fill:white;opacity:1" width="3300" x="0" y="0"/>
  <line style="fill:none;stroke:black;opacity:1;stroke-width:0.5;" x1="263" x2="3036" y1="292" y2="292"/>
  <text style="stroke:none;fill:black;font-family:sans-serif;font-size:13;font-weight:bold;" transform="matrix(1 0 0 1 263 322)">Weight/Scale Variations</text>
  <text style="stroke:none;fill:black;font-family:sans-serif;font-size:13;text-anchor:middle;" transform="matrix(1 0 0 1 559.711 322)">Ultralight</text>
  <text style="stroke:none;fill:black;font-family:sans-serif;font-size:13;text-anchor:middle;" transform="matrix(1 0 0 1 856.422 322)">Thin</text>
  <text style="stroke:none;fill:black;font-family:sans-serif;font-size:13;text-anchor:middle;" transform="matrix(1 0 0 1 1153.13 322)">Light</text>
  <text style="stroke:none;fill:black;font-family:sans-serif;font-size:13;text-anchor:middle;" transform="matrix(1 0 0 1 1449.84 322)">Regular</text>
  <text style="stroke:none;fill:black;font-family:sans-serif;font-size:13;text-anchor:middle;" transform="matrix(1 0 0 1 1746.56 322)">Medium</text>
  <text style="stroke:none;fill:black;font-family:sans-serif;font-size:13;text-anchor:middle;" transform="matrix(1 0 0 1 2043.27 322)">Semibold</text>
  <text style="stroke:none;fill:black;font-family:sans-serif;font-size:13;text-anchor:middle;" transform="matrix(1 0 0 1 2339.98 322)">Bold</text>
  <text style="stroke:none;fill:black;font-family:sans-serif;font-size:13;text-anchor:middle;" transform="matrix(1 0 0 1 2636.69 322)">Heavy</text>
  <text style="stroke:none;fill:black;font-family:sans-serif;font-size:13;text-anchor:middle;" transform="matrix(1 0 0 1 2933.4 322)">Black</text>
  <line style="fill:none;stroke:black;opacity:1;stroke-width:0.5;" x1="263" x2="3036" y1="1903" y2="1903"/>
  <g transform="matrix(0.2 0 0 0.2 263 1933)">
   <path d="m46.2402 4.15039c21.5332 0 39.4531-17.8711 39.4531-39.4043s-17.9688-39.4043-39.502-39.4043c-21.4844 0-39.3555 17.8711-39.3555 39.4043s17.9199 39.4043 39.4043 39.4043Zm0-7.42188c-17.7246 0-31.8848-14.209-31.8848-31.9824s14.1113-31.9824 31.8359-31.9824c17.7734 0 32.0312 14.209 32.0312 31.9824s-14.209 31.9824-31.9824 31.9824Zm-17.9688-31.9824c0 2.14844 1.51367 3.61328 3.75977 3.61328h10.498v10.5957c0 2.19727 1.46484 3.71094 3.61328 3.71094 2.24609 0 3.71094-1.51367 3.71094-3.71094v-10.5957h10.5957c2.19727 0 3.71094-1.46484 3.71094-3.61328 0-2.19727-1.51367-3.71094-3.71094-3.71094h-10.5957v-10.5469c0-2.24609-1.46484-3.75977-3.71094-3.75977-2.14844 0-3.61328 1.51367-3.61328 3.75977v10.5469h-10.498c-2.24609 0-3.75977 1.51367-3.75977 3.71094Z"/>
  </g>
  <g transform="matrix(0.2 0 0 0.2 281.506 1933)">
   <path d="m58.5449 14.5508c27.2461 0 49.8047-22.6074 49.8047-49.8047 0-27.2461-22.6074-49.8047-49.8535-49.8047-27.1973 0-49.7559 22.5586-49.7559 49.8047 0 27.1973 22.6074 49.8047 49.8047 49.8047Zm0-8.30078c-23.0469 0-41.4551-18.457-41.4551-41.5039s18.3594-41.5039 41.4062-41.5039 41.5527 18.457 41.5527 41.5039-18.457 41.5039-41.5039 41.5039Zm-22.6562-41.5039c0 2.39258 1.66016 4.00391 4.15039 4.00391h14.3555v14.4043c0 2.44141 1.66016 4.15039 4.05273 4.15039 2.44141 0 4.15039-1.66016 4.15039-4.15039v-14.4043h14.4043c2.44141 0 4.15039-1.61133 4.15039-4.00391 0-2.44141-1.70898-4.15039-4.15039-4.15039h-14.4043v-14.3555c0-2.49023-1.70898-4.19922-4.15039-4.19922-2.39258 0-4.05273 1.70898-4.05273 4.19922v14.3555h-14.3555c-2.49023 0-4.15039 1.70898-4.15039 4.15039Z"/>
  </g>
  <g transform="matrix(0.2 0 0 0.2 304.924 1933)">
   <path d="m74.8535 28.3203c34.8145 0 63.623-28.8086 63.623-63.5742 0-34.8145-28.8574-63.623-63.6719-63.623-34.7656 0-63.5254 28.8086-63.5254 63.623 0 34.7656 28.8086 63.5742 63.5742 63.5742Zm0-9.08203c-30.1758 0-54.4434-24.3164-54.4434-54.4922 0-30.2246 24.2188-54.4922 54.3945-54.4922 30.2246 0 54.541 24.2676 54.541 54.4922 0 30.1758-24.2676 54.4922-54.4922 54.4922Zm-28.8574-54.4922c0 2.58789 1.85547 4.39453 4.58984 4.39453h19.7266v19.7754c0 2.68555 1.85547 4.58984 4.44336 4.58984 2.68555 0 4.54102-1.85547 4.54102-4.58984v-19.7754h19.7754c2.68555 0 4.58984-1.80664 4.58984-4.39453 0-2.73438-1.85547-4.58984-4.58984-4.58984h-19.7754v-19.7266c0-2.73438-1.85547-4.63867-4.54102-4.63867-2.58789 0-4.44336 1.9043-4.44336 4.63867v19.7266h-19.7266c-2.73438 0-4.58984 1.85547-4.58984 4.58984Z"/>
  </g>
  <text style="stroke:none;fill:black;font-family:sans-serif;font-size:13;font-weight:bold;" transform="matrix(1 0 0 1 263 1953)">Design Variations</text>
  <text style="stroke:none;fill:black;font-family:sans-serif;font-size:13;" transform="matrix(1 0 0 1 263 1971)">Symbols are supported in up to nine weights and three scales.</text>
  <text style="stroke:none;fill:black;font-family:sans-serif;font-size:13;" transform="matrix(1 0 0 1 263 1989)">For optimal layout with text and other symbols, vertically align</text>
  <text style="stroke:none;fill:black;font-family:sans-serif;font-size:13;" transform="matrix(1 0 0 1 263 2007)">symbols with the adjacent text.</text>
  <line style="fill:none;stroke:#00AEEF;stroke-width:0.5;opacity:1.0;" x1="776" x2="776" y1="1919" y2="1933"/>
  <g transform="matrix(0.2 0 0 0.2 776 1933)">
   <path d="m16.5527 0.78125c2.58789 0 3.85742-0.976562 4.78516-3.71094l6.29883-17.2363h28.8086l6.29883 17.2363c0.927734 2.73438 2.19727 3.71094 4.73633 3.71094 2.58789 0 4.24805-1.5625 4.24805-4.00391 0-0.830078-0.146484-1.61133-0.537109-2.63672l-22.9004-60.9863c-1.12305-2.97852-3.125-4.49219-6.25-4.49219-3.02734 0-5.07812 1.46484-6.15234 4.44336l-22.9004 61.084c-0.390625 1.02539-0.537109 1.80664-0.537109 2.63672 0 2.44141 1.5625 3.95508 4.10156 3.95508Zm13.4766-28.3691 11.8652-32.8613h0.244141l11.8652 32.8613Z"/>
  </g>
  <line style="fill:none;stroke:#00AEEF;stroke-width:0.5;opacity:1.0;" x1="792.836" x2="792.836" y1="1919" y2="1933"/>
  <text style="stroke:none;fill:black;font-family:sans-serif;font-size:13;font-weight:bold;" transform="matrix(1 0 0 1 776 1953)">Margins</text>
  <text style="stroke:none;fill:black;font-family:sans-serif;font-size:13;" transform="matrix(1 0 0 1 776 1971)">Leading and trailing margins on the left and right side of each symbol</text>
  <text style="stroke:none;fill:black;font-family:sans-serif;font-size:13;" transform="matrix(1 0 0 1 776 1989)">can be adjusted by modifying the x-location of the margin guidelines.</text>
  <text style="stroke:none;fill:black;font-family:sans-serif;font-size:13;" transform="matrix(1 0 0 1 776 2007)">Modifications are automatically applied proportionally to all</text>
  <text style="stroke:none;fill:black;font-family:sans-serif;font-size:13;" transform="matrix(1 0 0 1 776 2025)">scales and weights.</text>
  <g transform="matrix(0.2 0 0 0.2 1289 1933)">
   <path d="m14.209 9.32617 8.49609 8.54492c4.29688 4.3457 9.22852 4.05273 13.8672-1.07422l53.4668-58.9355-4.83398-4.88281-53.0762 58.3984c-1.75781 2.00195-3.41797 2.49023-5.76172 0.146484l-5.85938-5.81055c-2.34375-2.29492-1.80664-4.00391 0.195312-5.81055l57.373-54.0039-4.88281-4.83398-57.959 54.4434c-4.93164 4.58984-5.32227 9.47266-1.02539 13.8184Zm32.0801-90.9668c-2.09961 2.05078-2.24609 4.93164-1.07422 6.88477 1.17188 1.80664 3.4668 2.97852 6.68945 2.14844 7.32422-1.70898 14.9414-2.00195 22.0703 2.68555l-2.92969 7.27539c-1.70898 4.15039-0.830078 7.08008 1.85547 9.81445l11.4746 11.5723c2.44141 2.44141 4.49219 2.53906 7.32422 2.05078l5.32227-0.976562 3.32031 3.36914-0.195312 2.7832c-0.195312 2.49023 0.439453 4.39453 2.88086 6.78711l3.80859 3.71094c2.39258 2.39258 5.46875 2.53906 7.8125 0.195312l14.5508-14.5996c2.34375-2.34375 2.24609-5.32227-0.146484-7.71484l-3.85742-3.80859c-2.39258-2.39258-4.24805-3.17383-6.64062-2.97852l-2.88086 0.244141-3.22266-3.17383 1.2207-5.61523c0.634766-2.83203-0.146484-5.0293-3.07617-7.95898l-10.9863-10.9375c-16.6992-16.6016-38.8672-16.2109-53.3203-1.75781Zm7.4707 1.85547c12.1582-8.88672 28.6133-7.37305 39.7461 3.75977l12.1582 12.0605c1.17188 1.17188 1.36719 2.09961 1.02539 3.80859l-1.61133 7.42188 7.51953 7.42188 4.93164-0.292969c1.26953-0.0488281 1.66016 0.0488281 2.63672 1.02539l2.88086 2.88086-12.207 12.207-2.88086-2.88086c-0.976562-0.976562-1.12305-1.36719-1.07422-2.68555l0.341797-4.88281-7.4707-7.42188-7.61719 1.26953c-1.61133 0.341797-2.34375 0.195312-3.56445-0.976562l-10.0098-10.0098c-1.26953-1.17188-1.41602-2.00195-0.634766-3.85742l4.39453-10.4492c-7.8125-7.27539-17.9688-10.4004-28.125-7.42188-0.78125 0.195312-1.07422-0.439453-0.439453-0.976562Z"/>
  </g>
  <text style="stroke:none;fill:black;font-family:sans-serif;font-size:13;font-weight:bold;" transform="matrix(1 0 0 1 1289 1953)">Exporting</text>
  <text style="stroke:none;fill:black;font-family:sans-serif;font-size:13;" transform="matrix(1 0 0 1 1289 1971)">Symbols should be outlined when exporting to ensure the</text>
  <text style="stroke:none;fill:black;font-family:sans-serif;font-size:13;" transform="matrix(1 0 0 1 1289 1989)">design is preserved when submitting to Xcode.</text>
  <text id="template-version" style="stroke:none;fill:black;font-family:sans-serif;font-size:13;text-anchor:end;" transform="matrix(1 0 0 1 3036 1933)">Template v.5.0</text>
  <text style="stroke:none;fill:black;font-family:sans-serif;font-size:13;text-anchor:end;" transform="matrix(1 0 0 1 3036 1951)">Requires Xcode 15 or greater</text>
  <text id="descriptive-name" style="stroke:none;fill:black;font-family:sans-serif;font-size:13;text-anchor:end;" transform="matrix(1 0 0 1 3036 1969)">Generated from huggy.fill</text>
  <text style="stroke:none;fill:black;font-family:sans-serif;font-size:13;text-anchor:end;" transform="matrix(1 0 0 1 3036 1987)">Typeset at 100.0 points</text>
  <text style="stroke:none;fill:black;font-family:sans-serif;font-size:13;" transform="matrix(1 0 0 1 263 726)">Small</text>
  <text style="stroke:none;fill:black;font-family:sans-serif;font-size:13;" transform="matrix(1 0 0 1 263 1156)">Medium</text>
  <text style="stroke:none;fill:black;font-family:sans-serif;font-size:13;" transform="matrix(1 0 0 1 263 1586)">Large</text>
 </g>
 <g id="Guides">
  <g id="H-reference" style="fill:#27AAE1;stroke:none;" transform="matrix(1 0 0 1 339 696)">
   <path d="M0.993654 0L3.63775 0L29.3281-67.1323L30.0303-67.1323L30.0303-70.459L28.1226-70.459ZM11.6885-24.4799L46.9815-24.4799L46.2315-26.7285L12.4385-26.7285ZM55.1196 0L57.7637 0L30.6382-70.459L29.4326-70.459L29.4326-67.1323Z"/>
  </g>
  <line id="Baseline-S" style="fill:none;stroke:#27AAE1;opacity:1;stroke-width:0.5;" x1="263" x2="3036" y1="696" y2="696"/>
  <line id="Capline-S" style="fill:none;stroke:#27AAE1;opacity:1;stroke-width:0.5;" x1="263" x2="3036" y1="625.541" y2="625.541"/>
  <g id="H-reference" style="fill:#27AAE1;stroke:none;" transform="matrix(1 0 0 1 339 1126)">
   <path d="M0.993654 0L3.63775 0L29.3281-67.1323L30.0303-67.1323L30.0303-70.459L28.1226-70.459ZM11.6885-24.4799L46.9815-24.4799L46.2315-26.7285L12.4385-26.7285ZM55.1196 0L57.7637 0L30.6382-70.459L29.4326-70.459L29.4326-67.1323Z"/>
  </g>
  <line id="Baseline-M" style="fill:none;stroke:#27AAE1;opacity:1;stroke-width:0.5;" x1="263" x2="3036" y1="1126" y2="1126"/>
  <line id="Capline-M" style="fill:none;stroke:#27AAE1;opacity:1;stroke-width:0.5;" x1="263" x2="3036" y1="1055.54" y2="1055.54"/>
  <g id="H-reference" style="fill:#27AAE1;stroke:none;" transform="matrix(1 0 0 1 339 1556)">
   <path d="M0.993654 0L3.63775 0L29.3281-67.1323L30.0303-67.1323L30.0303-70.459L28.1226-70.459ZM11.6885-24.4799L46.9815-24.4799L46.2315-26.7285L12.4385-26.7285ZM55.1196 0L57.7637 0L30.6382-70.459L29.4326-70.459L29.4326-67.1323Z"/>
  </g>
  <line id="Baseline-L" style="fill:none;stroke:#27AAE1;opacity:1;stroke-width:0.5;" x1="263" x2="3036" y1="1556" y2="1556"/>
  <line id="Capline-L" style="fill:none;stroke:#27AAE1;opacity:1;stroke-width:0.5;" x1="263" x2="3036" y1="1485.54" y2="1485.54"/>
  <line id="left-margin-Regular-M" style="fill:none;stroke:#00AEEF;stroke-width:0.5;opacity:1.0;" x1="1378.38" x2="1378.38" y1="1030.79" y2="1150.12"/>
  <line id="right-margin-Regular-M" style="fill:none;stroke:#00AEEF;stroke-width:0.5;opacity:1.0;" x1="1521.3" x2="1521.3" y1="1030.79" y2="1150.12"/>
 </g>
 <g id="Symbols">
  <g id="Black-L" transform="matrix(1 0 0 1 2836.44 1556)">
   <path class="monochrome-0 multicolor-0:systemRedColor hierarchical-0:secondary SFSymbolsPreviewWireframe" d="M97.6012-20.871L97.8237-20.4704C98.603-19.0755 99.3874-17.7924 100.231-17.7924C101.156-17.7924 102.08-19.3315 103.004-20.871C103.928-22.4101 104.852-23.9493 105.705-23.6414C110.189-22.07 113.935-18.6765 116.155-14.1755C112.103-10.7893 106.7-8.40366 99.6625-8.40366C93.1225-8.40366 87.933-10.4814 84.0232-13.6369C86.1558-18.4851 90.208-22.1791 95.0418-23.7952C95.895-24.0262 96.748-22.487 97.6012-20.871Z"/>
   <path class="monochrome-1 multicolor-1:systemYellowColor hierarchical-1:primary SFSymbolsPreviewWireframe" d="M116.262-114.306C134.015-114.306 151.041-107.105 163.594-94.2867C176.147-81.4686 183.199-64.0836 183.199-45.9557C183.199-27.8281 176.147-10.4428 163.594 2.37533C151.041 15.1935 134.015 22.3947 116.262 22.3947L36.8556 22.3947L16.1438 42.8852C15.7255 43.2846 15.2015 43.5506 14.6368 43.6503C14.0721 43.7497 13.4913 43.6783 12.9656 43.4451C12.4402 43.2118 11.993 42.8265 11.6791 42.3369C11.3652 41.8475 11.199 41.2749 11.199 40.6896L11.199-47.0697C11.199-84.2035 40.6792-114.306 77.0447-114.306L116.262-114.306ZM99.55-30.0359C84.4517-30.0359 72.229-45.0279 72.229-35.2056C72.229-25.4572 78.8437-6.40366 99.55-6.40366C120.328-6.40366 127.015-25.4572 127.015-35.2056C127.015-45.0279 114.72-30.0359 99.55-30.0359ZM124.411-73.7934C123.032-73.6577 121.694-73.2435 120.472-72.5741C118.003-71.2125 116.162-68.8993 115.353-66.1434C114.544-63.3874 114.834-60.4142 116.158-57.8779C116.822-56.5131 118.336-57.0898 119.972-57.7704L120.367-57.9348C121.622-58.4557 122.913-58.9517 123.923-58.6162C124.976-58.207 125.781-57.0803 126.539-55.9599L126.777-55.6072C127.844-54.0283 128.857-52.6159 130.394-53.4468C135.499-56.2532 137.44-62.8256 134.708-68.0692C134.064-69.3287 133.185-70.445 132.12-71.3536C131.055-72.2626 129.826-72.946 128.503-73.3649C127.179-73.7835 125.789-73.9293 124.411-73.7934ZM73.7548-73.7934C72.3767-73.9293 70.986-73.7835 69.6627-73.3649C68.3396-72.946 67.11-72.2626 66.0451-71.3536C64.9802-70.445 64.1007-69.3287 63.4578-68.0692C62.1557-65.5399 61.8783-62.5847 62.6862-59.8466C63.4941-57.1081 65.3215-54.8084 67.7714-53.4468C70.5036-51.9696 71.5821-57.5824 74.2421-58.6162C75.1987-58.9341 76.3974-58.5056 77.5799-58.0167L77.9731-57.8524C79.6713-57.1391 81.2756-56.4585 82.0072-57.8779C84.7391-63.1949 82.7981-69.7677 77.6933-72.5741C76.4716-73.2435 75.1332-73.6577 73.7548-73.7934Z"/>
  </g>
  <g id="Heavy-L" transform="matrix(1 0 0 1 2541.73 1556)">
   <path class="monochrome-0 multicolor-0:systemRedColor hierarchical-0:secondary SFSymbolsPreviewWireframe" d="M95.6151-20.2768C96.4482-18.7763 97.2813-17.2761 98.1841-17.2761C99.0083-17.2761 99.8323-18.5267 100.657-19.8863L100.892-20.2768L101.109-20.6359C101.939-22.0055 102.764-23.2531 103.531-22.977C107.91-21.4455 111.569-18.1379 113.737-13.7508C109.78-10.4503 104.503-8.12507 97.6285-8.12507C91.2406-8.12507 86.1718-10.1502 82.3528-13.2258C84.4359-17.9512 88.3938-21.5518 93.1152-23.1269C93.9486-23.3521 94.7817-21.8519 95.6151-20.2768Z"/>
   <path class="monochrome-1 multicolor-1:systemYellowColor hierarchical-1:primary SFSymbolsPreviewWireframe" d="M113.819-111.296C131.159-111.296 147.789-104.277 160.05-91.7833C172.311-79.2896 179.199-62.3447 179.199-44.6758C179.199-27.0072 172.311-10.062 160.05 2.43167C147.789 14.9253 131.159 21.9442 113.819 21.9442L36.259 21.9442L16.0288 41.916C15.6202 42.3053 15.1084 42.5645 14.5569 42.6617C14.0053 42.7586 13.4379 42.689 12.9245 42.4617C12.4114 42.2343 11.9745 41.8588 11.6679 41.3815C11.3613 40.9046 11.199 40.3465 11.199 39.776L11.199-45.7616C11.199-81.9553 39.9937-111.296 75.5134-111.296L113.819-111.296ZM97.4953-29.159C82.7482-29.159 70.8097-43.7715 70.8097-34.1979C70.8097-24.6962 77.2706-6.12507 97.4953-6.12507C117.791-6.12507 124.321-24.6962 124.321-34.1979C124.321-43.7715 112.313-29.159 97.4953-29.159ZM121.778-71.8087C120.431-71.6765 119.124-71.2728 117.931-70.6203C115.519-69.2931 113.721-67.0386 112.931-64.3524C112.14-61.6662 112.424-58.7683 113.717-56.2962C114.911-53.8485 118.914-57.8076 121.302-57.0158C122.131-56.6942 122.803-55.918 123.42-55.057L123.664-54.7089L123.904-54.3571C125.016-52.7144 126.032-51.1195 127.622-51.9772C132.608-54.7126 134.504-61.1186 131.835-66.2294C131.207-67.4571 130.348-68.5451 129.308-69.4307C128.268-70.3167 127.067-70.9828 125.775-71.3911C124.482-71.7991 123.124-71.9412 121.778-71.8087ZM72.3-71.8087C70.9539-71.9412 69.5956-71.7991 68.3031-71.3911C67.0108-70.9828 65.8098-70.3167 64.7696-69.4307C63.7294-68.5451 62.8704-67.4571 62.2424-66.2294C60.9707-63.7642 60.6997-60.8838 61.4888-58.215C62.2779-55.5459 64.0629-53.3044 66.4558-51.9772C68.0456-51.1195 69.0622-52.7144 70.1736-54.3571L70.4135-54.7089C71.0986-55.703 71.8362-56.6513 72.776-57.0158C73.7311-57.3325 74.9333-56.8891 76.1131-56.3996L76.5052-56.2357C78.1322-55.554 79.6582-54.9364 80.3605-56.2962C83.0289-61.4786 81.133-67.8849 76.1469-70.6203C74.9537-71.2728 73.6464-71.6765 72.3-71.8087Z"/>
  </g>
  <g id="Bold-L" transform="matrix(1 0 0 1 2247.52 1556)">
   <path class="monochrome-0 multicolor-0:systemRedColor hierarchical-0:secondary SFSymbolsPreviewWireframe" d="M92.9303-20.8105L93.1325-20.4345C93.9408-18.9925 94.7491-17.5507 95.625-17.5507C96.5009-17.5507 97.3765-18.9925 98.2524-20.4345C99.1283-21.8762 100.004-23.318 100.812-23.0296C105.062-21.5576 108.612-18.3789 110.715-14.1627C106.876-10.9909 101.755-8.75623 95.0859-8.75623C88.8882-8.75623 83.9702-10.7025 80.2649-13.6583C82.286-18.1996 86.1261-21.6598 90.707-23.1736C91.4482-23.372 92.1892-22.177 92.9303-20.8105Z"/>
   <path class="monochrome-1 multicolor-1:systemYellowColor hierarchical-1:primary SFSymbolsPreviewWireframe" d="M110.765-107.829C127.589-107.829 143.723-101.084 155.62-89.0771C167.516-77.0702 174.199-60.7855 174.199-43.805C174.199-26.8247 167.516-10.5397 155.62 1.46713C143.723 13.474 127.589 20.2194 110.765 20.2194L35.5131 20.2194L15.8851 39.4131C15.4886 39.7872 14.9921 40.0363 14.4569 40.1297C13.9218 40.2229 13.3713 40.156 12.8732 39.9375C12.3753 39.719 11.9515 39.3581 11.654 38.8995C11.3565 38.4411 11.199 37.9047 11.199 37.3565L11.199-44.8484C11.199-79.632 39.1367-107.829 73.5993-107.829L110.765-107.829ZM94.927-28.8928C80.6187-28.8928 69.0356-42.9359 69.0356-33.7353C69.0356-24.6038 75.3042-6.75623 94.927-6.75623C114.618-6.75623 120.955-24.6038 120.955-33.7353C120.955-42.9359 109.304-28.8928 94.927-28.8928ZM118.487-69.8808C117.18-69.7537 115.912-69.3657 114.754-68.7387C112.415-67.4632 110.67-65.2965 109.903-62.715C109.136-60.1334 109.411-57.3484 110.666-54.9726C111.824-52.6204 115.708-56.4251 118.025-55.6642C120.546-54.6958 121.568-49.4383 124.157-50.8219C128.994-53.4507 130.834-59.6072 128.245-64.5188C127.635-65.6987 126.802-66.7443 125.793-67.5955C124.784-68.4468 123.619-69.087 122.365-69.4794C121.111-69.8715 119.793-70.0081 118.487-69.8808ZM70.4815-69.8808C69.1755-70.0081 67.8576-69.8715 66.6035-69.4794C65.3497-69.087 64.1844-68.4468 63.1752-67.5955C62.166-66.7443 61.3326-65.6987 60.7233-64.5188C59.4894-62.1496 59.2265-59.3815 59.9921-56.8167C60.7577-54.2516 62.4895-52.0974 64.8112-50.8219C67.4004-49.4383 68.4225-54.6958 70.9434-55.6642C73.2599-56.4251 77.0755-52.6204 78.3021-54.9726C80.8911-59.9531 79.0516-66.1099 74.214-68.7387C73.0562-69.3657 71.7879-69.7537 70.4815-69.8808Z"/>
  </g>
  <g id="Semibold-L" transform="matrix(1 0 0 1 1952.31 1556)">
   <path class="monochrome-0 multicolor-0:systemRedColor hierarchical-0:secondary SFSymbolsPreviewWireframe" d="M91.6429-20.5467C92.4363-19.1339 93.2298-17.7214 94.0895-17.7214C94.9493-17.7214 95.8088-19.1339 96.6686-20.5467C97.5283-21.9593 98.3879-23.3718 99.1816-23.0892C103.353-21.6471 106.837-18.5328 108.902-14.4021C105.133-11.2946 100.107-9.10521 93.5604-9.10521C87.4767-9.10521 82.6492-11.012 79.0122-13.9079C80.996-18.3571 84.7655-21.7473 89.2621-23.2304C90.0558-23.4423 90.8492-22.0298 91.6429-20.5467Z"/>
   <path class="monochrome-1 multicolor-1:systemYellowColor hierarchical-1:primary SFSymbolsPreviewWireframe" d="M108.932-106.13C125.446-106.13 141.284-99.5209 152.962-87.7574C164.639-75.9939 171.199-60.0393 171.199-43.403C171.199-26.7669 164.639-10.812 152.962 0.95146C141.284 12.715 125.446 19.3237 108.932 19.3237L35.0656 19.3237L15.7989 38.1282C15.4097 38.4948 14.9223 38.7388 14.397 38.8304C13.8717 38.9216 13.3313 38.8561 12.8424 38.642C12.3536 38.428 11.9376 38.0744 11.6456 37.625C11.3536 37.1759 11.199 36.6505 11.199 36.1133L11.199-44.4253C11.199-78.5038 38.6225-106.13 72.4508-106.13L108.932-106.13ZM110.013-33.8224L109.41-33.5204C105.028-31.337 99.4541-28.793 93.386-28.793C79.3411-28.793 67.9711-42.5515 67.9711-33.5374C67.9711-24.591 74.1243-7.10521 93.386-7.10521C112.715-7.10521 118.935-24.591 118.935-33.5374C118.935-38.4951 115.475-36.5642 110.013-33.8224ZM116.512-68.9502C115.23-68.8257 113.985-68.4456 112.848-67.8312C110.552-66.5816 108.839-64.4588 108.086-61.9296C107.334-59.4005 107.603-56.6718 108.835-54.3442C109.507-52.9824 111.113-53.7269 112.784-54.4101L113.17-54.5657C114.201-54.9725 115.232-55.2929 116.059-55.0218C117.049-54.6423 117.803-53.5904 118.515-52.5516L118.75-52.2067C119.729-50.7797 120.666-49.5246 122.078-50.2777C126.826-52.8532 128.632-58.8849 126.091-63.697C125.492-64.8529 124.675-65.8773 123.684-66.7112C122.693-67.5453 121.549-68.1726 120.319-68.557C119.088-68.9411 117.794-69.0749 116.512-68.9502ZM69.3905-68.9502C68.1085-69.0749 66.8148-68.9411 65.5838-68.557C64.3531-68.1726 63.2092-67.5453 62.2186-66.7112C61.228-65.8773 60.4099-64.8529 59.8118-63.697C58.6006-61.3758 58.3425-58.6638 59.0941-56.1509C59.8456-53.6378 61.5455-51.5273 63.8245-50.2777C66.366-48.9221 67.3693-54.0731 69.8438-55.0218C72.1177-55.7673 75.8631-52.0397 77.0671-54.3442C79.6084-59.2238 77.8028-65.2557 73.0542-67.8312C71.9177-68.4456 70.6727-68.8257 69.3905-68.9502Z"/>
  </g>
  <g id="Medium-L" transform="matrix(1 0 0 1 1657.1 1556)">
   <path class="monochrome-0 multicolor-0:systemRedColor hierarchical-0:secondary SFSymbolsPreviewWireframe" d="M90.1533-20.4659C90.9319-19.0726 91.7104-17.6795 92.5541-17.6795C93.3977-17.6795 94.2411-19.0726 95.0848-20.4659C95.9284-21.8589 96.7718-23.2519 97.5506-22.9733C101.644-21.5511 105.063-18.4798 107.089-14.406C103.391-11.3413 98.4589-9.18216 92.0349-9.18216C86.0652-9.18216 81.3283-11.0626 77.7594-13.9186C79.7061-18.3065 83.4049-21.6498 87.8171-23.1125C88.5959-23.3215 89.3745-21.9285 90.1533-20.4659Z"/>
   <path class="monochrome-1 multicolor-1:systemYellowColor hierarchical-1:primary SFSymbolsPreviewWireframe" d="M107.1-104.841C123.304-104.841 138.845-98.3232 150.303-86.7219C161.762-75.1207 168.199-59.3861 168.199-42.9793C168.199-26.5727 161.762-10.8379 150.303 0.763379C138.845 12.3646 123.304 18.8822 107.1 18.8822L34.6181 18.8822L15.7126 37.4274C15.3307 37.7889 14.8525 38.0296 14.337 38.1198C13.8215 38.2098 13.2913 38.1452 12.8115 37.9341C12.332 37.723 11.9238 37.3742 11.6372 36.9311C11.3507 36.4882 11.199 35.97 11.199 35.4402L11.199-43.9875C11.199-77.5959 38.1083-104.841 71.3024-104.841L107.1-104.841ZM110.108-34.5121L109.572-34.244C109.028-33.9703 108.459-33.6805 107.866-33.3826L107.266-33.0822C103.014-30.9644 97.6609-28.5709 91.845-28.5709C78.0634-28.5709 66.9066-42.1395 66.9066-33.2498C66.9066-24.4268 72.9445-7.18216 91.845-7.18216C110.811-7.18216 116.914-24.4268 116.914-33.2498C116.914-37.5168 114.329-36.6095 110.108-34.5121ZM114.537-68.1741C113.279-68.0514 112.058-67.6765 110.942-67.0706C108.689-65.8382 107.008-63.7447 106.27-61.2504C105.531-58.7561 105.796-56.0651 107.005-53.7696C108.12-51.4968 111.861-55.1731 114.093-54.4378C116.521-53.5022 117.505-48.4223 119.999-49.7592C124.658-52.2991 126.43-58.2476 123.937-62.9933C123.349-64.1333 122.547-65.1436 121.575-65.966C120.603-66.7886 119.48-67.4072 118.273-67.7863C117.065-68.1651 115.795-68.2971 114.537-68.1741ZM68.2994-68.1741C67.0414-68.2971 65.772-68.1651 64.5641-67.7863C63.3564-67.4072 62.234-66.7886 61.262-65.966C60.29-65.1436 59.4872-64.1333 58.9003-62.9933C57.7118-60.7042 57.4586-58.0296 58.196-55.5514C58.9335-53.0729 60.6015-50.9915 62.8378-49.7592C65.3316-48.4223 66.3161-53.5022 68.7442-54.4378C70.9755-55.1731 74.6506-51.4968 75.8321-53.7696C78.3257-58.5819 76.554-64.5306 71.8944-67.0706C70.7793-67.6765 69.5576-68.0514 68.2994-68.1741Z"/>
  </g>
  <g id="Regular-L" transform="matrix(1 0 0 1 1361.88 1556)">
   <path class="monochrome-0 multicolor-0:systemRedColor hierarchical-0:secondary SFSymbolsPreviewWireframe" d="M88.6637-20.2008C89.4274-18.8464 90.1911-17.4924 91.0186-17.4924C91.8462-17.4924 92.6734-18.8464 93.501-20.2008C94.3285-21.5548 95.1558-22.9089 95.9197-22.638C99.9344-21.2556 103.289-18.2702 105.276-14.3104C101.648-11.3314 96.8106-9.23267 90.5093-9.23267C84.6538-9.23267 80.0074-11.0606 76.5067-13.8366C78.4161-18.1017 82.0443-21.3516 86.3722-22.7733C87.1361-22.9765 87.8998-21.6225 88.6637-20.2008Z"/>
   <path class="monochrome-1 multicolor-1:systemYellowColor hierarchical-1:primary SFSymbolsPreviewWireframe" d="M105.267-102.159C121.162-102.159 136.406-95.8243 147.645-84.5475C158.885-73.2708 165.199-57.9764 165.199-42.0285C165.199-26.0808 158.885-10.7861 147.645 0.490619C136.406 11.7674 121.162 18.1026 105.267 18.1026L34.1706 18.1026L15.6264 36.129C15.2518 36.4804 14.7827 36.7144 14.277 36.8021C13.7714 36.8896 13.2514 36.8268 12.7807 36.6216C12.3103 36.4164 11.9099 36.0774 11.6288 35.6467C11.3478 35.2161 11.199 34.7124 11.199 34.1975L11.199-43.0085C11.199-75.6768 37.5941-102.159 70.1539-102.159L105.267-102.159ZM90.304-28.0231C76.7857-28.0231 65.8421-41.2122 65.8421-32.5711C65.8421-23.9949 71.7646-7.23267 90.304-7.23267C108.908-7.23267 114.894-23.9949 114.894-32.5711C114.894-41.2122 103.887-28.0231 90.304-28.0231ZM112.563-66.5186C111.329-66.3992 110.13-66.0348 109.037-65.4459C106.826-64.248 105.177-62.213 104.453-59.7885C103.729-57.364 103.988-54.7483 105.174-52.517C106.268-50.3078 109.938-53.8812 112.127-53.1665C114.508-52.257 115.474-47.3192 117.92-48.6187C122.49-51.0876 124.229-56.8697 121.782-61.4827C121.206-62.5908 120.419-63.5728 119.466-64.3722C118.512-65.1718 117.411-65.7731 116.227-66.1416C115.042-66.5098 113.797-66.6381 112.563-66.5186ZM67.2083-66.5186C65.9744-66.6381 64.7292-66.5098 63.5444-66.1416C62.3598-65.7731 61.2589-65.1718 60.3054-64.3722C59.3519-63.5728 58.5645-62.5908 57.9888-61.4827C56.823-59.2576 56.5746-56.6578 57.298-54.2489C58.0214-51.8398 59.6575-49.8166 61.851-48.6187C64.2973-47.3192 65.2629-52.257 67.6446-53.1665C69.8333-53.8812 73.4381-50.3078 74.5971-52.517C77.043-57.1946 75.3052-62.977 70.7346-65.4459C69.6408-66.0348 68.4425-66.3992 67.2083-66.5186Z"/>
  </g>
  <g id="Light-L" transform="matrix(1 0 0 1 1066.17 1556)">
   <path class="monochrome-0 multicolor-0:systemRedColor hierarchical-0:secondary SFSymbolsPreviewWireframe" d="M87.6707-20.8631C88.4245-19.5283 89.1782-18.1937 89.995-18.1937C90.8118-18.1937 91.6283-19.5283 92.4451-20.8631C93.2619-22.1977 94.0784-23.5323 94.8324-23.2653C98.795-21.9028 102.106-18.9603 104.067-15.0575C100.486-12.1214 95.7117-10.0528 89.4923-10.0528C83.7128-10.0528 79.1267-11.8544 75.6715-14.5905C77.5562-18.7943 81.1372-21.9974 85.4089-23.3986C86.1629-23.5989 86.9167-22.2644 87.6707-20.8631Z"/>
   <path class="monochrome-1 multicolor-1:systemYellowColor hierarchical-1:primary SFSymbolsPreviewWireframe" d="M104.046-101.614C119.734-101.614 134.78-95.3697 145.873-84.2552C156.967-73.1408 163.199-58.0664 163.199-42.348C163.199-26.6297 156.967-11.5551 145.873-0.440661C134.78 10.6738 119.734 16.9179 104.046 16.9179L33.8723 16.9179L15.5689 34.685C15.1991 35.0313 14.7361 35.2619 14.2371 35.3484C13.738 35.4346 13.2247 35.3727 12.7602 35.1704C12.2959 34.9682 11.9007 34.6341 11.6233 34.2095C11.3458 33.7852 11.199 33.2887 11.199 32.7812L11.199-43.3139C11.199-75.5122 37.2513-101.614 69.3882-101.614L104.046-101.614ZM89.2766-28.5441C75.934-28.5441 65.1325-41.5434 65.1325-33.0267C65.1325-24.5739 70.978-8.05282 89.2766-8.05282C107.639-8.05282 113.548-24.5739 113.548-33.0267C113.548-41.5434 102.683-28.5441 89.2766-28.5441ZM111.246-66.4857C110.028-66.3681 108.846-66.0089 107.766-65.4285C105.584-64.2478 103.957-62.2421 103.242-59.8525C102.527-57.4628 102.783-54.8847 103.954-52.6856C104.556-51.4703 105.951-52.0304 107.441-52.6403L107.816-52.7928C108.879-53.2221 109.962-53.6042 110.816-53.3257C111.724-52.9794 112.424-52.0404 113.08-51.0922L113.309-50.7582C114.262-49.3725 115.162-48.1156 116.534-48.8434C121.045-51.2768 122.761-56.9757 120.346-61.5223C119.778-62.6144 119.001-63.5823 118.06-64.3702C117.119-65.1583 116.032-65.7509 114.863-66.1141C113.693-66.4771 112.464-66.6035 111.246-66.4857ZM66.4809-66.4857C65.263-66.6035 64.034-66.4771 62.8646-66.1141C61.6954-65.7509 60.6087-65.1583 59.6676-64.3702C58.7265-63.5823 57.9493-62.6144 57.3812-61.5223C56.2305-59.3292 55.9853-56.7668 56.6993-54.3926C57.4133-52.0181 59.0282-50.024 61.1932-48.8434C62.5651-48.1156 63.4652-49.3725 64.4179-50.7582L64.6478-51.0922C65.3037-52.0404 66.0033-52.9794 66.9115-53.3257C69.0718-54.0301 72.6298-50.5081 73.7737-52.6856C76.1879-57.2959 74.4726-62.9951 69.9614-65.4285C68.8818-66.0089 67.699-66.3681 66.4809-66.4857Z"/>
  </g>
  <g id="Thin-L" transform="matrix(1 0 0 1 770.462 1556)">
   <path class="monochrome-0 multicolor-0:systemRedColor hierarchical-0:secondary SFSymbolsPreviewWireframe" d="M86.4835-19.3863L86.6776-19.0285C87.4215-17.7132 88.1653-16.3981 88.9714-16.3981C89.7774-16.3981 90.5832-17.7132 91.3892-19.0285L91.5995-19.3706C92.3349-20.5604 93.0658-21.6359 93.7451-21.3957C97.6556-20.053 100.923-17.1535 102.858-13.3077C99.3247-10.4144 94.6129-8.37608 88.4753-8.37608C82.7718-8.37608 78.2461-10.1514 74.8364-12.8475C76.6962-16.9899 80.2301-20.1463 84.4456-21.5271C85.125-21.7073 85.8042-20.6266 86.4835-19.3863Z"/>
   <path class="monochrome-1 multicolor-1:systemYellowColor hierarchical-1:primary SFSymbolsPreviewWireframe" d="M102.824-98.5712C118.306-98.5712 133.154-92.4183 144.101-81.4661C155.049-70.5138 161.199-55.6595 161.199-40.1705C161.199-24.6818 155.049-9.82726 144.101 1.12496C133.154 12.0772 118.306 18.2301 102.824 18.2301L33.574 18.2301L15.5114 35.7378C15.1465 36.0791 14.6896 36.3063 14.1971 36.3915C13.7046 36.4765 13.1981 36.4155 12.7396 36.2162C12.2815 36.0169 11.8914 35.6877 11.6177 35.2693C11.3439 34.8512 11.199 34.362 11.199 33.8618L11.199-41.1224C11.199-72.8506 36.9085-98.5712 68.6226-98.5712L102.824-98.5712ZM104.924-31.7935L104.115-31.3892C99.8901-29.2787 94.3351-26.5682 88.2493-26.5682C75.0822-26.5682 64.4228-39.3778 64.4228-30.9854C64.4228-22.656 70.1915-6.37608 88.2493-6.37608C106.37-6.37608 112.201-22.656 112.201-30.9854C112.201-35.2655 109.412-34.031 104.924-31.7935ZM109.93-63.9559C108.728-63.84 107.561-63.4861 106.495-62.9141C104.342-61.7507 102.736-59.7743 102.031-57.4195C101.325-55.0648 101.578-52.5243 102.733-50.3572C103.317-49.1822 104.653-49.6915 106.092-50.2787L106.469-50.4326C107.543-50.8676 108.642-51.269 109.505-50.9881C111.825-50.1048 112.765-45.309 115.148-46.5711C119.6-48.969 121.293-54.5847 118.91-59.0649C118.349-60.1411 117.582-61.095 116.654-61.8713C115.725-62.6479 114.653-63.2319 113.499-63.5898C112.345-63.9474 111.132-64.072 109.93-63.9559ZM65.7535-63.9559C64.5516-64.072 63.3389-63.9474 62.1848-63.5898C61.0309-63.2319 59.9586-62.6479 59.0299-61.8713C58.1012-61.095 57.3342-60.1411 56.7735-59.0649C55.638-56.9038 55.396-54.3789 56.1006-52.0393C56.8052-49.6995 58.3989-47.7346 60.5354-46.5711C62.9181-45.309 63.8587-50.1048 66.1785-50.9881C68.3103-51.6822 71.8215-48.2116 72.9504-50.3572C75.3328-54.9003 73.6401-60.5162 69.1882-62.9141C68.1228-63.4861 66.9556-63.84 65.7535-63.9559Z"/>
  </g>
  <g id="Ultralight-L" transform="matrix(1 0 0 1 474.751 1556)">
   <path class="monochrome-0 multicolor-0:systemRedColor hierarchical-0:secondary SFSymbolsPreviewWireframe" d="M84.6846-19.1909L84.9048-18.8034C85.5659-17.6488 86.232-16.5994 86.9477-16.5994C87.743-16.5994 88.5381-17.895 89.3334-19.1909C90.1286-20.4865 90.9237-21.7821 91.6579-21.5229C95.5162-20.2002 98.7396-17.3437 100.65-13.5548C97.163-10.7044 92.514-8.69623 86.4583-8.69623C80.8309-8.69623 76.3655-10.4452 73.0012-13.1014C74.8363-17.1825 78.323-20.292 82.4823-21.6524C83.2165-21.8468 83.9504-20.5512 84.6846-19.1909Z"/>
   <path class="monochrome-1 multicolor-1:systemYellowColor hierarchical-1:primary SFSymbolsPreviewWireframe" d="M101.602-97.5255C116.878-97.5255 131.528-91.4637 142.329-80.6738C153.131-69.8838 159.199-55.2496 159.199-39.99C159.199-24.7308 153.131-10.0963 142.329 0.693679C131.528 11.4836 116.878 17.5454 101.602 17.5454L33.2756 17.5454L15.4539 34.7937C15.0939 35.13 14.643 35.3538 14.1571 35.4378C13.6712 35.5215 13.1714 35.4614 12.7191 35.265C12.267 35.0687 11.8822 34.7443 11.6121 34.3322C11.342 33.9203 11.199 33.4383 11.199 32.9456L11.199-40.9278C11.199-72.186 36.5657-97.5255 67.8569-97.5255L101.602-97.5255ZM103.675-31.7371L103.146-31.4735C98.9456-29.3769 93.3571-26.5892 87.2219-26.5892C74.2304-26.5892 63.7132-39.209 63.7132-30.9409C63.7132-22.735 69.4049-6.69623 87.2219-6.69623C105.101-6.69623 110.854-22.735 110.854-30.9409C110.854-35.1577 108.103-33.9414 103.675-31.7371ZM108.614-63.423C107.428-63.3088 106.276-62.9602 105.225-62.3967C103.1-61.2505 101.516-59.3033 100.82-56.9835C100.124-54.6636 100.373-52.1608 101.513-50.0258C102.564-47.912 106.091-51.3311 108.194-50.6473C109.046-50.3235 109.709-49.466 110.327-48.5809L110.558-48.2487C111.509-46.8673 112.395-45.5729 113.762-46.2958C118.154-48.6582 119.825-54.1907 117.474-58.6045C116.92-59.6648 116.164-60.6045 115.248-61.3693C114.331-62.1344 113.273-62.7097 112.135-63.0623C110.996-63.4147 109.799-63.5374 108.614-63.423ZM65.0261-63.423C63.8403-63.5374 62.6437-63.4147 61.505-63.0623C60.3665-62.7097 59.3085-62.1344 58.3921-61.3693C57.4758-60.6045 56.7191-59.6648 56.1658-58.6045C55.0455-56.4754 54.8068-53.9879 55.5019-51.683C56.1971-49.3778 57.7695-47.442 59.8776-46.2958C61.1897-45.6018 62.0586-46.767 62.9682-48.0835L63.1968-48.4148C63.8483-49.3568 64.5405-50.3033 65.4454-50.6473C67.5488-51.3311 71.0132-47.912 72.127-50.0258C74.4777-54.5015 72.8075-60.0343 68.415-62.3967C67.3638-62.9602 66.2122-63.3088 65.0261-63.423Z"/>
  </g>
  <g id="Black-M" transform="matrix(1 0 0 1 2854.44 1126)">
   <path class="monochrome-0 multicolor-0:systemRedColor hierarchical-0:secondary SFSymbolsPreviewWireframe" d="M79.2278-24.0588C79.9022-22.8409 80.5766-21.6232 81.3075-21.6232C82.0383-21.6232 82.7688-22.8409 83.4996-24.0588C84.2305-25.2765 84.961-26.4942 85.6357-26.2506C89.1812-25.0074 92.1432-22.3227 93.8983-18.7618C90.6945-16.0828 86.4224-14.1954 80.8577-14.1954C75.6866-14.1954 71.5832-15.8392 68.4917-18.3357C70.178-22.1712 73.382-25.0938 77.2041-26.3723C77.8788-26.555 78.5532-25.3374 79.2278-24.0588Z"/>
   <path class="monochrome-1 multicolor-1:systemYellowColor hierarchical-1:primary SFSymbolsPreviewWireframe" d="M94.2723-97.5613C108.309-97.5613 121.772-91.8641 131.697-81.7232C141.623-71.5823 147.199-57.8283 147.199-43.4866C147.199-29.1452 141.623-15.391 131.697-5.25004C121.772 4.8909 108.309 10.5881 94.2723 10.5881L31.4856 10.5881L15.1089 26.7989C14.7781 27.1149 14.3638 27.3253 13.9173 27.4042C13.4708 27.4828 13.0115 27.4264 12.5958 27.2418C12.1804 27.0573 11.8268 26.7525 11.5786 26.3651C11.3304 25.978 11.199 25.525 11.199 25.0619L11.199-44.3679C11.199-73.746 34.509-97.5613 63.2631-97.5613L94.2723-97.5613ZM81.0579-30.8919C69.1197-30.8919 59.4553-42.7526 59.4553-34.9818C59.4553-27.2694 64.6855-12.1954 81.0579-12.1954C97.4874-12.1954 102.774-27.2694 102.774-34.9818C102.774-42.7526 93.0531-30.8919 81.0579-30.8919ZM100.715-65.5101C99.6252-65.4028 98.567-65.0751 97.601-64.5455C95.6488-63.4682 94.1929-61.6382 93.5532-59.4579C92.9135-57.2776 93.1427-54.9253 94.19-52.9187C95.1564-50.932 98.3967-54.1455 100.33-53.5028C101.099-53.2036 101.701-52.4195 102.261-51.6026L102.483-51.2751C103.365-49.9669 104.182-48.729 105.446-49.4131C109.482-51.6334 111.017-56.8331 108.857-60.9814C108.348-61.9779 107.653-62.8611 106.811-63.5799C105.969-64.299 104.997-64.8397 103.951-65.1711C102.904-65.5022 101.805-65.6176 100.715-65.5101ZM60.6617-65.5101C59.572-65.6176 58.4725-65.5022 57.4261-65.1711C56.38-64.8397 55.4077-64.299 54.5657-63.5799C53.7236-62.8611 53.0282-61.9779 52.5199-60.9814C51.4904-58.9804 51.271-56.6425 51.9098-54.4762C52.5486-52.3097 53.9935-50.4903 55.9307-49.4131C58.091-48.2445 58.9438-52.685 61.0471-53.5028C62.9799-54.1455 66.1634-50.932 67.1869-52.9187C69.347-57.1252 67.8122-62.3252 63.7759-64.5455C62.8099-65.0751 61.7517-65.4028 60.6617-65.5101Z"/>
  </g>
  <g id="Heavy-M" transform="matrix(1 0 0 1 2559.73 1126)">
   <path class="monochrome-0 multicolor-0:systemRedColor hierarchical-0:secondary SFSymbolsPreviewWireframe" d="M77.2361-23.6523C77.8907-22.4734 78.5453-21.2946 79.2546-21.2946C79.9639-21.2946 80.673-22.4734 81.3823-23.6523C82.0916-24.831 82.8007-26.0098 83.4555-25.774C86.8967-24.5706 89.7716-21.9718 91.4751-18.5247C88.3655-15.9315 84.2191-14.1046 78.818-14.1046C73.799-14.1046 69.8163-15.6957 66.8158-18.1123C68.4525-21.8251 71.5623-24.6541 75.2719-25.8917C75.9267-26.0686 76.5813-24.8899 77.2361-23.6523Z"/>
   <path class="monochrome-1 multicolor-1:systemYellowColor hierarchical-1:primary SFSymbolsPreviewWireframe" d="M91.829-94.7387C105.453-94.7387 118.519-89.2239 128.153-79.4074C137.787-69.591 143.199-56.2771 143.199-42.3944C143.199-28.5119 137.787-15.1978 128.153-5.3814C118.519 4.43503 105.453 9.94988 91.829 9.94988L30.889 9.94988L14.9939 25.642C14.6728 25.9479 14.2707 26.1515 13.8373 26.2279C13.4039 26.304 12.9582 26.2494 12.5548 26.0707C12.1516 25.8921 11.8083 25.597 11.5674 25.2221C11.3265 24.8473 11.199 24.4088 11.199 23.9605L11.199-43.2475C11.199-71.6854 33.8234-94.7387 61.7318-94.7387L91.829-94.7387ZM79.0032-30.2027C67.4162-30.2027 58.036-41.6839 58.036-34.1618C58.036-26.6962 63.1124-12.1046 79.0032-12.1046C94.9495-12.1046 100.081-26.6962 100.081-34.1618C100.081-41.6839 90.6456-30.2027 79.0032-30.2027ZM98.0823-63.7131C97.0244-63.6093 95.9973-63.2921 95.0597-62.7794C93.165-61.7366 91.7519-59.9652 91.131-57.8546C90.5101-55.744 90.7326-53.4671 91.7491-51.5247C92.6871-49.6016 95.8321-52.7122 97.7083-52.0901C98.4228-51.813 98.9886-51.1064 99.5122-50.3533L99.7343-50.0288C100.615-48.7284 101.416-47.4525 102.674-48.1312C106.592-50.2804 108.081-55.3138 105.985-59.3294C105.491-60.294 104.816-61.1489 103.999-61.8447C103.182-62.5408 102.238-63.0642 101.223-63.385C100.207-63.7055 99.14-63.8172 98.0823-63.7131ZM59.207-63.7131C58.1493-63.8172 57.0821-63.7055 56.0665-63.385C55.0511-63.0642 54.1074-62.5408 53.2902-61.8447C52.4729-61.1489 51.798-60.294 51.3046-59.3294C50.3053-57.3924 50.0924-55.1293 50.7124-53.0323C51.3325-50.9352 52.7349-49.174 54.615-48.1312C56.7118-47 57.5395-51.2984 59.5809-52.0901C61.4569-52.7122 64.5468-49.6016 65.5402-51.5247C67.6367-55.5966 66.1472-60.6302 62.2295-62.7794C61.292-63.2921 60.2648-63.6093 59.207-63.7131Z"/>
  </g>
  <g id="Bold-M" transform="matrix(1 0 0 1 2265.02 1126)">
   <path class="monochrome-0 multicolor-0:systemRedColor hierarchical-0:secondary SFSymbolsPreviewWireframe" d="M75.255-24.0292C75.8898-22.8892 76.5245-21.7495 77.2124-21.7495C77.9002-21.7495 78.5878-22.8892 79.2756-24.0292C79.9634-25.1689 80.651-26.3087 81.286-26.0807C84.6229-24.9171 87.4107-22.4042 89.0626-19.0711C86.0472-16.5636 82.0264-14.7971 76.789-14.7971C71.9221-14.7971 68.0601-16.3356 65.1505-18.6723C66.7376-22.2624 69.7531-24.9979 73.3504-26.1946C73.9853-26.3656 74.6201-25.2259 75.255-24.0292Z"/>
   <path class="monochrome-1 multicolor-1:systemYellowColor hierarchical-1:primary SFSymbolsPreviewWireframe" d="M89.3857-92.6995C102.597-92.6995 115.267-87.367 124.609-77.875C133.951-68.3831 139.199-55.5094 139.199-42.0856C139.199-28.662 133.951-15.7881 124.609-6.29616C115.267 3.19576 102.597 8.5283 89.3857 8.5283L30.2923 8.5283L14.8789 23.7016C14.5675 23.9974 14.1776 24.1943 13.7574 24.2682C13.3371 24.3418 12.9049 24.289 12.5137 24.1162C12.1227 23.9435 11.7899 23.6582 11.5563 23.2956C11.3227 22.9332 11.199 22.5092 11.199 22.0758L11.199-42.9105C11.199-70.4083 33.1378-92.6995 60.2005-92.6995L89.3857-92.6995ZM76.9486-30.2969C65.7126-30.2969 56.6167-41.3985 56.6167-34.1251C56.6167-26.9063 61.5392-12.7971 76.9486-12.7971C92.4116-12.7971 97.3874-26.9063 97.3874-34.1251C97.3874-41.3985 88.2382-30.2969 76.9486-30.2969ZM95.4495-62.6996C94.4237-62.5991 93.4277-62.2924 92.5185-61.7967C90.6812-60.7884 89.3109-59.0755 88.7088-57.0347C88.1067-54.9939 88.3225-52.7922 89.3082-50.9141C90.2177-49.0545 93.2675-52.0623 95.0868-51.4608C95.7974-51.186 96.3564-50.4742 96.875-49.7253L97.0952-49.4031C97.9321-48.1686 98.7032-46.9877 99.9023-47.6328C103.701-49.7109 105.146-54.5779 103.112-58.4607C102.634-59.3934 101.979-60.2201 101.187-60.8929C100.394-61.566 99.4794-62.0721 98.4948-62.3823C97.51-62.6922 96.4751-62.8002 95.4495-62.6996ZM57.7522-62.6996C56.7266-62.8002 55.6917-62.6922 54.7069-62.3823C53.7223-62.0721 52.8072-61.566 52.0147-60.8929C51.2222-60.2201 50.5677-59.3934 50.0892-58.4607C49.1203-56.5878 48.9138-54.3995 49.5151-52.3719C50.1163-50.344 51.4762-48.6411 53.2994-47.6328C54.4985-46.9877 55.2696-48.1686 56.1065-49.4031L56.3266-49.7253C56.8453-50.4742 57.4042-51.186 58.1148-51.4608C59.934-52.0623 62.9302-49.0545 63.8935-50.9141C65.9265-54.8514 64.4821-59.7185 60.6831-61.7967C59.774-62.2924 58.778-62.5991 57.7522-62.6996Z"/>
  </g>
  <g id="Semibold-M" transform="matrix(1 0 0 1 1969.81 1126)">
   <path class="monochrome-0 multicolor-0:systemRedColor hierarchical-0:secondary SFSymbolsPreviewWireframe" d="M73.7616-25.4357C74.3814-24.3249 75.0013-23.2144 75.673-23.2144C76.3447-23.2144 77.0162-24.3249 77.6879-25.4357C78.3596-26.5462 79.0311-27.6567 79.6512-27.4346C82.9099-26.3008 85.6324-23.8523 87.2455-20.6047C84.3008-18.1615 80.3743-16.4402 75.2596-16.4402C70.5067-16.4402 66.7353-17.9394 63.8938-20.2161C65.4437-23.7142 68.3886-26.3795 71.9016-27.5455C72.5216-27.7122 73.1415-26.6017 73.7616-25.4357Z"/>
   <path class="monochrome-1 multicolor-1:systemYellowColor hierarchical-1:primary SFSymbolsPreviewWireframe" d="M87.5532-92.2939C100.455-92.2939 112.828-87.0981 121.951-77.8496C131.074-68.601 136.199-56.0574 136.199-42.9778C136.199-29.8984 131.074-17.3546 121.951-8.10603C112.828 1.14251 100.455 6.33831 87.5532 6.33831L29.8448 6.33831L14.7926 21.1226C14.4886 21.4108 14.1078 21.6027 13.6974 21.6746C13.287 21.7464 12.8649 21.6948 12.4829 21.5265C12.1011 21.3583 11.776 21.0803 11.5479 20.727C11.3198 20.3739 11.199 19.9608 11.199 19.5384L11.199-43.7815C11.199-70.5743 32.6236-92.2939 59.052-92.2939L87.5532-92.2939ZM75.4076-31.4914C64.435-31.4914 55.5522-42.3083 55.5522-35.2214C55.5522-28.1877 60.3594-14.4402 75.4076-14.4402C90.5082-14.4402 95.3674-28.1877 95.3674-35.2214C95.3674-42.3083 86.4326-31.4914 75.4076-31.4914ZM93.4749-63.0632C92.4731-62.9653 91.5004-62.6665 90.6126-62.1835C88.8183-61.201 87.4802-59.532 86.8922-57.5436C86.3042-55.5551 86.5149-53.4099 87.4775-51.5799C88.3657-49.768 91.344-52.6987 93.1207-52.1126C93.7821-51.8574 94.3089-51.2156 94.7953-50.5242L95.0173-50.2028C95.8599-48.9666 96.6215-47.7377 97.8233-48.3827C101.533-50.4076 102.944-55.1498 100.958-58.9331C100.491-59.8418 99.8518-60.6473 99.0779-61.3029C98.3039-61.9587 97.4103-62.4518 96.4488-62.754C95.4871-63.056 94.4764-63.1613 93.4749-63.0632ZM56.6611-63.0632C55.6595-63.1613 54.6489-63.056 53.6871-62.754C52.7256-62.4518 51.832-61.9587 51.0581-61.3029C50.2842-60.6473 49.645-59.8418 49.1778-58.9331C48.2315-57.1081 48.0299-54.9759 48.617-53.0003C49.2042-51.0245 50.5322-49.3652 52.3127-48.3827C53.5145-47.7377 54.276-48.9666 55.1186-50.2028L55.3406-50.5242C55.8271-51.2156 56.3539-51.8574 57.0152-52.1126C58.7917-52.6987 61.7178-49.768 62.6585-51.5799C64.6438-55.4162 63.2332-60.1586 59.5234-62.1835C58.6355-62.6665 57.6628-62.9653 56.6611-63.0632Z"/>
  </g>
  <g id="Medium-M" transform="matrix(1 0 0 1 1674.1 1126)">
   <path class="monochrome-0 multicolor-0:systemRedColor hierarchical-0:secondary SFSymbolsPreviewWireframe" d="M72.7763-24.5779C73.3863-23.4866 73.9963-22.3956 74.6572-22.3956C75.2447-22.3956 75.8321-23.2576 76.4195-24.2156L76.6398-24.5779C77.3008-25.6689 77.9615-26.76 78.5717-26.5417C81.7783-25.4278 84.4572-23.0223 86.0445-19.8317C83.1469-17.4314 79.2832-15.7403 74.2504-15.7403C69.5736-15.7403 65.8625-17.2131 63.0665-19.4499C64.5916-22.8866 67.4894-25.5052 70.9461-26.6507C71.5562-26.8145 72.1662-25.7234 72.7763-24.5779Z"/>
   <path class="monochrome-1 multicolor-1:systemYellowColor hierarchical-1:primary SFSymbolsPreviewWireframe" d="M86.3315-90.2281C99.0267-90.2281 111.202-85.1235 120.179-76.0372C129.156-66.9509 134.199-54.6273 134.199-41.7772C134.199-28.9273 129.156-16.6035 120.179-7.51721C111.202 1.56907 99.0267 6.67372 86.3315 6.67372L29.5465 6.67372L14.7351 21.1986C14.436 21.4818 14.0613 21.6703 13.6574 21.741C13.2536 21.8115 12.8382 21.7608 12.4623 21.5955C12.0866 21.4302 11.7668 21.157 11.5423 20.8099C11.3178 20.4631 11.199 20.0572 11.199 19.6423L11.199-42.5668C11.199-68.8896 32.2808-90.2281 58.2863-90.2281L86.3315-90.2281ZM88.6886-35.1455L88.2687-34.9356C87.8422-34.7212 87.3962-34.4943 86.9321-34.2609L86.462-34.0257C83.1302-32.3669 78.9366-30.4923 74.3802-30.4923C63.5832-30.4923 54.8425-41.1195 54.8425-34.1569C54.8425-27.2466 59.5728-13.7403 74.3802-13.7403C89.2392-13.7403 94.0207-27.2466 94.0207-34.1569C94.0207-37.4989 91.995-36.7883 88.6886-35.1455ZM92.1584-61.5102C91.1727-61.4141 90.2156-61.1205 89.342-60.6459C87.5764-59.6807 86.2597-58.041 85.6811-56.0874C85.1025-54.1339 85.3099-52.0262 86.257-50.2284C87.1311-48.4483 90.0617-51.3276 91.81-50.7517C92.4783-50.4942 93.0071-49.8361 93.4965-49.136L93.72-48.8112C94.5319-47.619 95.2756-46.4647 96.4373-47.0873C100.088-49.0767 101.476-53.7356 99.522-57.4525C99.0621-58.3454 98.4333-59.1367 97.6718-59.7808C96.9103-60.4251 96.0309-60.9096 95.0848-61.2065C94.1385-61.5032 93.144-61.6066 92.1584-61.5102ZM55.9337-61.5102C54.9481-61.6066 53.9537-61.5032 53.0073-61.2065C52.0612-60.9096 51.1819-60.4251 50.4203-59.7808C49.6588-59.1367 49.0299-58.3454 48.5701-57.4525C47.639-55.6596 47.4406-53.5648 48.0183-51.6239C48.5961-49.6827 49.9029-48.0525 51.6548-47.0873C53.6086-46.0402 54.3799-50.0189 56.2822-50.7517C58.0303-51.3276 60.9095-48.4483 61.8351-50.2284C63.7887-53.9974 62.4007-58.6566 58.7502-60.6459C57.8765-61.1205 56.9194-61.4141 55.9337-61.5102Z"/>
  </g>
  <g id="Regular-M" transform="matrix(1 0 0 1 1378.38 1126)">
   <path class="monochrome-0 multicolor-0:systemRedColor hierarchical-0:secondary SFSymbolsPreviewWireframe" d="M71.782-25.3957C72.382-24.324 72.9821-23.2524 73.6323-23.2524C74.2825-23.2524 74.9325-24.324 75.5827-25.3957C76.2329-26.4673 76.8829-27.5389 77.4831-27.3245C80.6375-26.2305 83.2729-23.868 84.8344-20.7343C81.984-18.3768 78.1831-16.7159 73.2321-16.7159C68.6313-16.7159 64.9805-18.1625 62.23-20.3593C63.7303-23.7346 66.581-26.3065 69.9815-27.4316C70.5817-27.5924 71.1818-26.5208 71.782-25.3957Z"/>
   <path class="monochrome-1 multicolor-1:systemYellowColor hierarchical-1:primary SFSymbolsPreviewWireframe" d="M85.1098-89.8379C97.5986-89.8379 109.576-84.8244 118.407-75.9004C127.238-66.9763 132.199-54.8728 132.199-42.2522C132.199-29.6317 127.238-17.528 118.407-8.60399C109.576 0.320039 97.5986 5.33353 85.1098 5.33353L29.2481 5.33353L14.6776 19.5991C14.3833 19.8772 14.0147 20.0623 13.6175 20.1317C13.2202 20.2009 12.8116 20.1512 12.4418 19.9888C12.0722 19.8265 11.7576 19.5582 11.5367 19.2173C11.3159 18.8766 11.199 18.478 11.199 18.0705L11.199-43.0277C11.199-68.8804 31.938-89.8379 57.5207-89.8379L85.1098-89.8379ZM85.7007-34.8701L85.2382-34.6391C81.9606-33.0099 77.8352-31.1688 73.3529-31.1688C62.7314-31.1688 54.1329-41.6062 54.1329-34.768C54.1329-27.9811 58.7863-14.7159 73.3529-14.7159C87.9703-14.7159 92.674-27.9811 92.674-34.768C92.674-38.5974 89.9617-37.0092 85.7007-34.8701ZM90.842-61.6328C89.8723-61.5384 88.9308-61.25 88.0713-60.784C86.3345-59.836 85.0392-58.2256 84.47-56.3069C83.9008-54.3882 84.1048-52.3182 85.0366-50.5525C85.8964-48.8041 88.7794-51.632 90.4992-51.0664C92.3705-50.3467 93.1293-46.4391 95.0513-47.4675C98.6423-49.4213 100.008-53.9971 98.0859-57.6476C97.6334-58.5245 97.0149-59.3017 96.2657-59.9343C95.5166-60.5671 94.6515-61.0429 93.7208-61.3345C92.7898-61.6259 91.8115-61.7275 90.842-61.6328ZM55.2063-61.6328C54.2368-61.7275 53.2585-61.6259 52.3275-61.3345C51.3968-61.0429 50.5317-60.5671 49.7826-59.9343C49.0334-59.3017 48.4147-58.5245 47.9624-57.6476C47.0465-55.8867 46.8513-53.8293 47.4196-51.923C47.988-50.0165 49.2736-48.4155 50.997-47.4675C52.9191-46.4391 53.6778-50.3467 55.5491-51.0664C57.2688-51.632 60.1012-48.8041 61.0118-50.5525C62.9336-54.2542 61.5681-58.8301 57.977-60.784C57.1175-61.25 56.176-61.5384 55.2063-61.6328Z"/>
  </g>
  <g id="Light-M" transform="matrix(1 0 0 1 1082.67 1126)">
   <path class="monochrome-0 multicolor-0:systemRedColor hierarchical-0:secondary SFSymbolsPreviewWireframe" d="M70.7805-24.2176C71.3706-23.1653 71.9607-22.1132 72.6002-22.1132C73.2396-22.1132 73.8789-23.1653 74.5183-24.2176C75.1578-25.2697 75.797-26.3217 76.3874-26.1113C79.4896-25.0372 82.0815-22.7176 83.6172-19.6409C80.8138-17.3263 77.0758-15.6956 72.2066-15.6956C67.6819-15.6956 64.0914-17.1158 61.3864-19.2728C62.8619-22.5867 65.6654-25.1118 69.0097-26.2164C69.6-26.3743 70.1902-25.3222 70.7805-24.2176Z"/>
   <path class="monochrome-1 multicolor-1:systemYellowColor hierarchical-1:primary SFSymbolsPreviewWireframe" d="M83.8882-87.4517C96.1705-87.4517 107.95-82.5294 116.635-73.7676C125.32-65.0058 130.199-53.1224 130.199-40.7312C130.199-28.3402 125.32-16.4565 116.635-7.69477C107.95 1.067 96.1705 5.98934 83.8882 5.98934L28.9498 5.98934L14.6201 19.9955C14.3307 20.2685 13.9682 20.4503 13.5775 20.5185C13.1868 20.5864 12.7849 20.5376 12.4212 20.3782C12.0578 20.2188 11.7483 19.9554 11.5311 19.6207C11.314 19.2862 11.199 18.8948 11.199 18.4947L11.199-41.4926C11.199-66.8752 31.5952-87.4517 56.7551-87.4517L83.8882-87.4517ZM72.3256-29.8493C67.1026-29.8493 62.377-32.4112 58.9572-34.1339L58.5531-34.3364C55.3716-35.9205 53.4232-36.6057 53.4232-33.383C53.4232-26.7195 57.9997-13.6956 72.3256-13.6956C86.7013-13.6956 91.3273-26.7195 91.3273-33.383C91.3273-40.097 82.8214-29.8493 72.3256-29.8493ZM89.5256-59.7595C88.5719-59.6667 87.646-59.3836 86.8007-58.926C85.0926-57.9953 83.8187-56.4142 83.2589-54.5304C82.6992-52.6465 82.8998-50.6142 83.8161-48.8805C84.6617-47.164 87.497-49.9405 89.1885-49.3852C91.0288-48.6786 91.775-44.842 93.6653-45.8517C97.1969-47.77 98.54-52.2625 96.6497-55.8467C96.2047-56.7077 95.5964-57.4707 94.8597-58.0918C94.1229-58.7131 93.2722-59.1802 92.3568-59.4666C91.4412-59.7527 90.4791-59.8524 89.5256-59.7595ZM54.4789-59.7595C53.5254-59.8524 52.5633-59.7527 51.6477-59.4666C50.7323-59.1802 49.8816-58.7131 49.1448-58.0918C48.4081-57.4707 47.7996-56.7077 47.3548-55.8467C46.4539-54.1178 46.262-52.0978 46.821-50.2262C47.3799-48.3544 48.6442-46.7824 50.3392-45.8517C52.2295-44.842 52.9757-48.6786 54.816-49.3852C56.5073-49.9405 59.2929-47.164 60.1884-48.8805C62.0785-52.515 60.7356-57.0077 57.2038-58.926C56.3586-59.3836 55.4326-59.6667 54.4789-59.7595Z"/>
  </g>
  <g id="Thin-M" transform="matrix(1 0 0 1 787.462 1126)">
   <path class="monochrome-0 multicolor-0:systemRedColor hierarchical-0:secondary SFSymbolsPreviewWireframe" d="M69.2999-24.1976C69.8751-23.1746 70.4504-22.1517 71.0737-22.1517C71.697-22.1517 72.3202-23.1746 72.9435-24.1976C73.5668-25.2205 74.19-26.2433 74.7654-26.0387C77.7895-24.9945 80.316-22.7393 81.813-19.7481C79.0803-17.4978 75.4365-15.9124 70.6901-15.9124C66.2794-15.9124 62.7795-17.2932 60.1426-19.3902C61.5809-22.612 64.3138-25.067 67.5738-26.1409C68.1492-26.2944 68.7245-25.2716 69.2999-24.1976Z"/>
   <path class="monochrome-1 multicolor-1:systemYellowColor hierarchical-1:primary SFSymbolsPreviewWireframe" d="M82.0557-85.6197C94.0284-85.6197 105.511-80.8341 113.977-72.3157C122.443-63.7973 127.199-52.244 127.199-40.197C127.199-28.1502 122.443-16.5966 113.977-8.07824C105.511 0.440151 94.0284 5.22576 82.0557 5.22576L28.5023 5.22576L14.5339 18.8429C14.2517 19.1083 13.8984 19.285 13.5175 19.3513C13.1367 19.4174 12.7449 19.3699 12.3904 19.2149C12.0361 19.0599 11.7345 18.8039 11.5228 18.4785C11.3111 18.1533 11.199 17.7728 11.199 17.3838L11.199-40.9373C11.199-65.6148 31.081-85.6197 55.6066-85.6197L82.0557-85.6197ZM52.3588-33.0529C52.3588-26.5745 56.8199-13.9124 70.7845-13.9124C84.7979-13.9124 89.3072-26.5745 89.3072-33.0529C89.3072-36.6134 86.8403-35.2675 82.9374-33.3084L82.4978-33.0884C79.3063-31.4969 75.2284-29.6174 70.7845-29.6174C60.602-29.6174 52.3588-39.5804 52.3588-33.0529ZM87.551-58.6967C86.6214-58.6065 85.7187-58.3313 84.8948-57.8864C83.2297-56.9815 81.9879-55.4443 81.4423-53.6128C80.8966-51.7814 81.0922-49.8055 81.9854-48.12C82.8097-46.4511 85.5736-49.1505 87.2223-48.6106C89.0163-47.9236 89.7437-44.1936 91.5863-45.1752C95.0289-47.0402 96.3381-51.408 94.4955-54.8926C94.0617-55.7297 93.4688-56.4715 92.7506-57.0753C92.0324-57.6794 91.2031-58.1336 90.3108-58.4119C89.4183-58.6901 88.4804-58.787 87.551-58.6967ZM53.3878-58.6967C52.4584-58.787 51.5205-58.6901 50.628-58.4119C49.7357-58.1336 48.9064-57.6794 48.1882-57.0753C47.47-56.4715 46.8769-55.7297 46.4433-54.8926C45.5652-53.2118 45.378-51.2479 45.9229-49.4282C46.4678-47.6084 47.7002-46.0801 49.3525-45.1752C50.4054-44.6143 51.0942-45.5918 51.8259-46.661L52.0471-46.983C52.5309-47.6804 53.0501-48.3554 53.7165-48.6106C55.3651-49.1505 58.0804-46.4511 58.9534-48.12C60.7958-51.6534 59.4868-56.0214 56.044-57.8864C55.2201-58.3313 54.3174-58.6065 53.3878-58.6967Z"/>
  </g>
  <g id="Ultralight-M" transform="matrix(1 0 0 1 491.251 1126)">
   <path class="monochrome-0 multicolor-0:systemRedColor hierarchical-0:secondary SFSymbolsPreviewWireframe" d="M68.7945-23.8641C69.3648-22.8508 69.935-21.8377 70.553-21.8377C71.0983-21.8377 71.6434-22.6265 72.1886-23.5082L72.4067-23.8641C73.0247-24.8773 73.6424-25.8904 74.2129-25.6877C77.2109-24.6534 79.7156-22.4197 81.1997-19.457C78.4906-17.2281 74.8782-15.6578 70.1727-15.6578C65.8-15.6578 62.3303-17.0254 59.7162-19.1025C61.1421-22.2937 63.8514-24.7252 67.0833-25.7889C67.6537-25.941 68.224-24.9279 68.7945-23.8641Z"/>
   <path class="monochrome-1 multicolor-1:systemYellowColor hierarchical-1:primary SFSymbolsPreviewWireframe" d="M81.4448-84.6822C93.3143-84.6822 104.698-79.9422 113.091-71.5049C121.484-63.0676 126.199-51.6243 126.199-39.6921C126.199-27.76 121.484-16.3165 113.091-7.87923C104.698 0.558034 93.3143 5.29806 81.4448 5.29806L28.3531 5.29806L14.5051 18.7855C14.2254 19.0484 13.8751 19.2234 13.4975 19.2891C13.12 19.3545 12.7316 19.3075 12.3802 19.154C12.0289 19.0005 11.7299 18.7469 11.52 18.4246C11.3101 18.1025 11.199 17.7256 11.199 17.3403L11.199-40.4253C11.199-64.8678 30.9096-84.6822 55.2238-84.6822L81.4448-84.6822ZM70.2709-29.2132C60.1761-29.2132 52.0039-39.0813 52.0039-32.6161C52.0039-26.1994 56.4266-13.6578 70.2709-13.6578C84.1634-13.6578 88.6339-26.1994 88.6339-32.6161C88.6339-39.0813 80.4139-29.2132 70.2709-29.2132ZM86.8928-58.0156C85.9712-57.9263 85.0763-57.6537 84.2595-57.213C82.6088-56.3168 81.3777-54.7942 80.8367-52.9802C80.2958-51.1661 80.4896-49.2091 81.3752-47.5396C82.1924-45.8867 84.9324-48.5603 86.567-48.0256C88.3455-47.3451 89.0666-43.6506 90.8933-44.6229C94.3062-46.4701 95.6042-50.7963 93.7774-54.2478C93.3474-55.0768 92.7596-55.8116 92.0475-56.4097C91.3355-57.008 90.5134-57.4578 89.6288-57.7335C88.744-58.0091 87.8142-58.1051 86.8928-58.0156ZM53.0241-58.0156C52.1027-58.1051 51.1729-58.0091 50.2881-57.7335C49.4035-57.4578 48.5814-57.008 47.8694-56.4097C47.1573-55.8116 46.5693-55.0768 46.1395-54.2478C45.2689-52.5829 45.0834-50.6377 45.6236-48.8354C46.1638-47.0329 47.3856-45.5192 49.0236-44.6229C50.8503-43.6506 51.5714-47.3451 53.3499-48.0256C54.9843-48.5603 57.6763-45.8867 58.5417-47.5396C60.3683-51.0394 59.0705-55.3658 55.6574-57.213C54.8406-57.6537 53.9457-57.9263 53.0241-58.0156Z"/>
  </g>
  <g id="Black-S" transform="matrix(1 0 0 1 2868.44 696)">
   <path class="monochrome-0 multicolor-0:systemRedColor hierarchical-0:secondary SFSymbolsPreviewWireframe" d="M65.3223-27.202C65.8579-26.2375 66.3935-25.273 66.9738-25.273C67.5542-25.273 68.1343-26.2375 68.7147-27.202C69.295-28.1665 69.8752-29.1309 70.4109-28.9379C73.2265-27.9533 75.5787-25.827 76.9724-23.0068C74.4282-20.885 71.0357-19.3902 66.6167-19.3902C62.5102-19.3902 59.2516-20.6921 56.7966-22.6693C58.1357-25.7071 60.6801-28.0217 63.7153-29.0343C64.251-29.179 64.7866-28.2146 65.3223-27.202Z"/>
   <path class="monochrome-1 multicolor-1:systemYellowColor hierarchical-1:primary SFSymbolsPreviewWireframe" d="M77.169-85C88.316-85 99.0066-80.4879 106.889-72.4562C114.771-64.4246 119.199-53.5315 119.199-42.1729C119.199-30.8144 114.771-19.9211 106.889-11.8895C99.0066-3.85785 88.316 0.654288 77.169 0.654288L27.309 0.654288L14.3039 13.4933C14.0412 13.7436 13.7122 13.9102 13.3576 13.9727C13.003 14.035 12.6383 13.9902 12.3083 13.8441C11.9784 13.6979 11.6976 13.4565 11.5004 13.1497C11.3033 12.8431 11.199 12.4843 11.199 12.1176L11.199-42.8708C11.199-66.1382 29.7098-85 52.544-85L77.169-85ZM66.6752-32.1978C61.8342-32.1978 57.464-34.6472 54.3461-36.2251L53.9629-36.4175C51.2017-37.792 49.5202-38.3178 49.5202-35.437C49.5202-29.3288 53.6736-17.3902 66.6752-17.3902C79.7221-17.3902 83.9205-29.3288 83.9205-35.437C83.9205-41.5915 76.2008-32.1978 66.6752-32.1978ZM82.2853-59.6154C81.4198-59.5305 80.5794-59.2709 79.8123-58.8515C78.2621-57.9983 77.1059-56.5489 76.5979-54.8221C76.0899-53.0953 76.272-51.2323 77.1036-49.6431C77.8711-48.0696 80.4443-50.6147 81.9794-50.1057C83.6496-49.458 84.3268-45.9411 86.0424-46.8666C89.2475-48.6251 90.4665-52.7433 88.7509-56.0287C88.3471-56.818 87.795-57.5174 87.1263-58.0868C86.4577-58.6563 85.6856-59.0845 84.8548-59.347C84.0239-59.6092 83.1507-59.7006 82.2853-59.6154ZM50.4782-59.6154C49.6129-59.7006 48.7397-59.6092 47.9088-59.347C47.078-59.0845 46.3059-58.6563 45.6372-58.0868C44.9686-57.5174 44.4163-56.818 44.0126-56.0287C43.1951-54.4439 43.0209-52.5923 43.5282-50.8766C44.0355-49.1608 45.1829-47.7198 46.7212-46.8666C48.4367-45.9411 49.114-49.458 50.7842-50.1057C52.3191-50.6147 54.8472-48.0696 55.66-49.6431C57.3753-52.9746 56.1566-57.093 52.9512-58.8515C52.1841-59.2709 51.3438-59.5305 50.4782-59.6154Z"/>
  </g>
  <g id="Heavy-S" transform="matrix(1 0 0 1 2573.23 696)">
   <path class="monochrome-0 multicolor-0:systemRedColor hierarchical-0:secondary SFSymbolsPreviewWireframe" d="M63.8339-26.7502C64.3546-25.8148 64.8753-24.8797 65.4395-24.8797C66.0037-24.8797 66.5678-25.8148 67.132-26.7502L67.32-27.0604C67.821-27.8794 68.3182-28.5998 68.7811-28.4335C71.5185-27.4787 73.8054-25.4169 75.1604-22.6821C72.6868-20.6246 69.3886-19.1751 65.0923-19.1751C61.0998-19.1751 57.9318-20.4375 55.545-22.3548C56.8469-25.3005 59.3206-27.545 62.2715-28.5269C62.7923-28.6673 63.313-27.7321 63.8339-26.7502Z"/>
   <path class="monochrome-1 multicolor-1:systemYellowColor hierarchical-1:primary SFSymbolsPreviewWireframe" d="M75.3365-82.7361C86.1739-82.7361 96.5675-78.3607 104.231-70.5724C111.894-62.7842 116.199-52.2211 116.199-41.2067C116.199-30.1925 111.894-19.6293 104.231-11.8411C96.5675-4.05281 86.1739 0.322604 75.3365 0.322604L26.8615 0.322604L14.2177 12.7725C13.9623 13.0152 13.6424 13.1768 13.2977 13.2374C12.9529 13.2978 12.5983 13.2544 12.2775 13.1127C11.9567 12.971 11.6837 12.7369 11.4921 12.4394C11.3004 12.142 11.199 11.7941 11.199 11.4385L11.199-41.8836C11.199-64.4459 29.1957-82.7361 51.3955-82.7361L75.3365-82.7361ZM65.1342-31.534C55.9172-31.534 48.4557-40.643 48.4557-34.6751C48.4557-28.7519 52.4937-17.1751 65.1342-17.1751C77.8187-17.1751 81.9004-28.7519 81.9004-34.6751C81.9004-40.643 74.3952-31.534 65.1342-31.534ZM80.3107-58.1208C79.4692-58.0384 78.6522-57.7867 77.9064-57.3799C76.3992-56.5526 75.2752-55.1472 74.7813-53.4727C74.2874-51.7982 74.4644-49.9917 75.2729-48.4506C75.7025-47.5721 76.7141-48.0176 77.7799-48.4594L78.1177-48.5973C78.7944-48.8666 79.4705-49.0787 80.0132-48.8992C81.6371-48.2711 82.2955-44.8608 83.9634-45.7583C87.0795-47.4634 88.2646-51.4568 86.5967-54.6428C86.2041-55.4081 85.6673-56.0863 85.0172-56.6384C84.3671-57.1907 83.6165-57.6059 82.8088-57.8604C82.001-58.1147 81.152-58.2034 80.3107-58.1208ZM49.3871-58.1208C48.5458-58.2034 47.6969-58.1147 46.889-57.8604C46.0814-57.6059 45.3307-57.1907 44.6806-56.6384C44.0305-56.0863 43.4936-55.4081 43.1012-54.6428C42.3063-53.106 42.1369-51.3104 42.6301-49.6468C43.1233-47.9829 44.2389-46.5856 45.7345-45.7583C47.4024-44.8608 48.0608-48.2711 49.6846-48.8992C51.1769-49.3928 53.6348-46.9248 54.425-48.4506C56.0927-51.6812 54.9078-55.6748 51.7915-57.3799C51.0457-57.7867 50.2286-58.0384 49.3871-58.1208Z"/>
  </g>
  <g id="Bold-S" transform="matrix(1 0 0 1 2278.52 696)">
   <path class="monochrome-0 multicolor-0:systemRedColor hierarchical-0:secondary SFSymbolsPreviewWireframe" d="M61.8481-26.6209C62.349-25.7245 62.8498-24.8283 63.3926-24.8283C63.9353-24.8283 64.4779-25.7245 65.0206-26.6209C65.5633-27.5171 66.1059-28.4133 66.6069-28.234C69.2399-27.3191 71.4397-25.3431 72.7431-22.7222C70.3638-20.7505 67.1912-19.3614 63.0586-19.3614C59.2182-19.3614 56.1709-20.5713 53.875-22.4086C55.1273-25.2316 57.5068-27.3826 60.3452-28.3236C60.8463-28.4581 61.3471-27.5619 61.8481-26.6209Z"/>
   <path class="monochrome-1 multicolor-1:systemYellowColor hierarchical-1:primary SFSymbolsPreviewWireframe" d="M72.8932-80.1907C83.3177-80.1907 93.3153-75.9976 100.687-68.5339C108.058-61.0701 112.199-50.9472 112.199-40.3917C112.199-29.8364 108.058-19.7133 100.687-12.2496C93.3153-4.78588 83.3177-0.592775 72.8932-0.592775L26.2648-0.592775L14.1027 11.3384C13.857 11.571 13.5493 11.7258 13.2177 11.7839C12.8861 11.8418 12.545 11.8002 12.2364 11.6644C11.9279 11.5286 11.6652 11.3042 11.4809 11.0191C11.2966 10.7342 11.199 10.4008 11.199 10.06L11.199-41.0404C11.199-62.6626 28.5101-80.1907 49.8642-80.1907L72.8932-80.1907ZM63.0795-31.122C54.2137-31.122 47.0364-39.8515 47.0364-34.1322C47.0364-28.4559 50.9206-17.3614 63.0795-17.3614C75.2808-17.3614 79.207-28.4559 79.207-34.1322C79.207-39.8515 71.9877-31.122 63.0795-31.122ZM77.6779-56.601C76.8685-56.522 76.0826-56.2809 75.3652-55.8911C73.9154-55.0982 72.8342-53.7513 72.3591-52.1466C71.884-50.5419 72.0543-48.8106 72.832-47.3338C73.5497-45.8716 75.9562-48.2367 77.3917-47.7637C78.9537-47.1617 79.5871-43.8935 81.1914-44.7536C84.1888-46.3877 85.3288-50.2147 83.7244-53.2679C83.3467-54.0013 82.8304-54.6513 82.2051-55.1804C81.5798-55.7097 80.8577-56.1076 80.0808-56.3515C79.3038-56.5952 78.4872-56.6802 77.6779-56.601ZM47.9324-56.601C47.1231-56.6802 46.3065-56.5952 45.5294-56.3515C44.7525-56.1076 44.0305-55.7097 43.4051-55.1804C42.7798-54.6513 42.2634-54.0013 41.8858-53.2679C41.1213-51.7952 40.9583-50.0744 41.4328-48.4801C41.9072-46.8856 42.9802-45.5465 44.4188-44.7536C46.0232-43.8935 46.6565-47.1617 48.2185-47.7637C49.6539-48.2367 52.0182-45.8716 52.7782-47.3338C54.3824-50.4298 53.2427-54.2569 50.2451-55.8911C49.5277-56.2809 48.7418-56.522 47.9324-56.601Z"/>
  </g>
  <g id="Semibold-S" transform="matrix(1 0 0 1 1982.81 696)">
   <path class="monochrome-0 multicolor-0:systemRedColor hierarchical-0:secondary SFSymbolsPreviewWireframe" d="M60.8535-27.7635C61.3444-26.8866 61.8353-26.0099 62.3673-26.0099C62.8993-26.0099 63.4311-26.8866 63.9631-27.7635C64.4951-28.6403 65.0269-29.517 65.518-29.3416C68.0989-28.4465 70.2551-26.5135 71.5327-23.9496C69.2005-22.0208 66.0907-20.6619 62.0399-20.6619C58.2756-20.6619 55.2886-21.8454 53.0382-23.6428C54.2657-26.4045 56.5981-28.5087 59.3803-29.4292C59.8714-29.5608 60.3624-28.6841 60.8535-27.7635Z"/>
   <path class="monochrome-1 multicolor-1:systemYellowColor hierarchical-1:primary SFSymbolsPreviewWireframe" d="M71.6715-80.1253C81.8896-80.1253 91.6893-76.0234 98.9146-68.7219C106.14-61.4204 110.199-51.5175 110.199-41.1915C110.199-30.8657 106.14-20.9627 98.9146-13.6612C91.6893-6.35971 81.8896-2.25777 71.6715-2.25777L25.9665-2.25777L14.0452 9.41403C13.8044 9.64157 13.5028 9.79305 13.1777 9.84985C12.8527 9.90649 12.5184 9.86582 12.2158 9.73295C11.9134 9.60008 11.656 9.38061 11.4753 9.1017C11.2946 8.82296 11.199 8.4968 11.199 8.1634L11.199-41.8261C11.199-62.9783 28.1673-80.1253 49.0986-80.1253L71.6715-80.1253ZM62.0522-32.1233C53.3619-32.1233 46.3267-40.663 46.3267-35.0681C46.3267-29.5152 50.134-18.6619 62.0522-18.6619C74.0118-18.6619 77.8603-29.5152 77.8603-35.0681C77.8603-40.663 70.784-32.1233 62.0522-32.1233ZM76.3615-57.0484C75.5681-56.9712 74.7977-56.7352 74.0946-56.3539C72.6735-55.5783 71.6137-54.2607 71.148-52.6908C70.6823-51.121 70.8492-49.4274 71.6115-47.9827C72.315-46.5522 74.6738-48.8659 76.081-48.4032C77.6121-47.8143 78.2328-44.6172 79.8054-45.4586C82.7435-47.0572 83.8609-50.801 82.2883-53.7878C81.9181-54.5053 81.412-55.1411 80.7991-55.6587C80.1861-56.1764 79.4784-56.5658 78.7168-56.8044C77.9551-57.0428 77.1547-57.1259 76.3615-57.0484ZM47.205-57.0484C46.4117-57.1259 45.6113-57.0428 44.8496-56.8044C44.0881-56.5658 43.3803-56.1764 42.7674-55.6587C42.1544-55.1411 41.6482-54.5053 41.2782-53.7878C40.5287-52.3471 40.369-50.6637 40.8341-49.104C41.2991-47.5442 42.3509-46.2342 43.761-45.4586C44.6456-44.9853 45.229-45.7898 45.8427-46.6892L46.0488-46.9909C46.4652-47.5948 46.9113-48.1824 47.4854-48.4032C48.8924-48.8659 51.2099-46.5522 51.9549-47.9827C53.5273-51.0113 52.4101-54.7553 49.4719-56.3539C48.7687-56.7352 47.9984-56.9712 47.205-57.0484Z"/>
  </g>
  <g id="Medium-S" transform="matrix(1 0 0 1 1686.6 696)">
   <path class="monochrome-0 multicolor-0:systemRedColor hierarchical-0:secondary SFSymbolsPreviewWireframe" d="M60.357-27.5596C60.843-26.6925 61.329-25.8255 61.8556-25.8255C62.3822-25.8255 62.9087-26.6925 63.4353-27.5596C63.9619-28.4266 64.4883-29.2936 64.9745-29.1202C67.5293-28.2351 69.6637-26.3235 70.9284-23.7881C68.6198-21.8807 65.5414-20.5369 61.5315-20.5369C57.8053-20.5369 54.8484-21.7073 52.6207-23.4848C53.8358-26.2157 56.1446-28.2965 58.8988-29.2068C59.3849-29.3369 59.8709-28.47 60.357-27.5596Z"/>
   <path class="monochrome-1 multicolor-1:systemYellowColor hierarchical-1:primary SFSymbolsPreviewWireframe" d="M71.0607-79.3174C81.1755-79.3174 90.8762-75.261 98.0286-68.0407C105.181-60.8203 109.199-51.0275 109.199-40.8162C109.199-30.6051 105.181-20.8121 98.0286-13.5918C90.8762-6.37143 81.1755-2.31506 71.0607-2.31506L25.8173-2.31506L14.0164 9.22705C13.778 9.45206 13.4795 9.60185 13.1578 9.65802C12.836 9.71403 12.5051 9.67382 12.2056 9.54243C11.9062 9.41103 11.6514 9.194 11.4725 8.91819C11.2937 8.64255 11.199 8.32001 11.199 7.99031L11.199-41.4437C11.199-62.3609 27.9959-79.3174 48.7157-79.3174L71.0607-79.3174ZM61.5385-31.8488C52.936-31.8488 45.9719-40.2936 45.9719-34.7608C45.9719-29.2696 49.7408-18.5369 61.5385-18.5369C73.3774-18.5369 77.187-29.2696 77.187-34.7608C77.187-40.2936 70.1821-31.8488 61.5385-31.8488ZM75.7033-56.4969C74.9179-56.4205 74.1553-56.1872 73.4592-55.8101C72.0525-55.0431 71.0034-53.7402 70.5425-52.1878C70.0815-50.6354 70.2467-48.9606 71.0013-47.5319C71.6977-46.1174 74.0327-48.4054 75.4256-47.9478C75.9466-47.7476 76.3611-47.2426 76.744-46.6999L76.9502-46.4017C77.596-45.4557 78.1881-44.5418 79.1124-45.0359C82.0208-46.6167 83.1269-50.3189 81.5702-53.2725C81.2037-53.982 80.7028-54.6108 80.096-55.1227C79.4893-55.6346 78.7887-56.0196 78.0348-56.2556C77.2808-56.4914 76.4885-56.5735 75.7033-56.4969ZM46.8413-56.4969C46.056-56.5735 45.2637-56.4914 44.5097-56.2556C43.7559-56.0196 43.0553-55.6346 42.4485-55.1227C41.8418-54.6108 41.3407-53.982 40.9743-53.2725C40.2325-51.8478 40.0744-50.1832 40.5347-48.6408C40.9951-47.0983 42.0362-45.8029 43.4321-45.0359C44.3077-44.5678 44.8853-45.3634 45.4928-46.2528L45.6968-46.5511C46.1089-47.1483 46.5506-47.7294 47.1189-47.9478C48.5117-48.4054 50.8057-46.1174 51.5432-47.5319C53.0998-50.5269 51.9938-54.2293 49.0853-55.8101C48.3892-56.1872 47.6267-56.4205 46.8413-56.4969Z"/>
  </g>
  <g id="Regular-S" transform="matrix(1 0 0 1 1391.38 696)">
   <path class="monochrome-0 multicolor-0:systemRedColor hierarchical-0:secondary SFSymbolsPreviewWireframe" d="M58.8736-27.3181C59.3447-26.4802 59.8158-25.6424 60.3263-25.6424C60.8368-25.6424 61.3471-26.4802 61.8576-27.3181L62.0377-27.6121C62.4877-28.3391 62.9339-28.9739 63.3497-28.8261C65.8263-27.9707 67.8954-26.1237 69.1214-23.6737C66.8834-21.8306 63.8993-20.5321 60.0121-20.5321C56.4-20.5321 53.5336-21.663 51.3741-23.3806C52.5521-26.0194 54.7902-28.0301 57.46-28.9098C57.9313-29.0355 58.4024-28.1977 58.8736-27.3181Z"/>
   <path class="monochrome-1 multicolor-1:systemYellowColor hierarchical-1:primary SFSymbolsPreviewWireframe" d="M69.2282-77.2638C79.0334-77.2638 88.4371-73.3442 95.3705-66.3672C102.304-59.3902 106.199-49.9275 106.199-40.0604C106.199-30.1935 102.304-20.7306 95.3705-13.7537C88.4371-6.77668 79.0334-2.85704 69.2282-2.85704L25.3698-2.85704L13.9302 8.29601C13.6991 8.51343 13.4097 8.65817 13.0978 8.71245C12.7859 8.76657 12.4651 8.72771 12.1747 8.60075C11.8846 8.47379 11.6375 8.26407 11.4642 7.99756C11.2908 7.73121 11.199 7.41954 11.199 7.10095L11.199-40.6668C11.199-60.8788 27.4817-77.2638 47.5673-77.2638L69.2282-77.2638ZM44.9074-34.2091C44.9074-28.903 48.5609-18.5321 59.9975-18.5321C71.474-18.5321 75.167-28.903 75.167-34.2091C75.167-39.5554 68.3765-31.3952 59.9975-31.3952C51.6583-31.3952 44.9074-39.5554 44.9074-34.2091ZM73.7287-55.2126C72.9673-55.1387 72.2281-54.9133 71.5533-54.5489C70.1897-53.8078 69.1727-52.5487 68.7258-51.0487C68.279-49.5486 68.4391-47.9302 69.1706-46.5497C69.8457-45.1829 72.1092-47.3937 73.4595-46.9516C74.9287-46.3889 75.5244-43.3338 77.0335-44.1378C79.8528-45.6654 80.925-49.2428 79.416-52.0969C79.0607-52.7824 78.5751-53.39 77.9869-53.8846C77.3988-54.3793 76.7196-54.7513 75.9888-54.9793C75.2579-55.2072 74.4898-55.2866 73.7287-55.2126ZM45.7502-55.2126C44.989-55.2866 44.2209-55.2072 43.49-54.9793C42.7592-54.7513 42.0801-54.3793 41.4919-53.8846C40.9037-53.39 40.418-52.7824 40.0629-52.0969C39.3437-50.7202 39.1905-49.1116 39.6367-47.6213C40.0829-46.1307 41.0922-44.879 42.4454-44.1378C43.9544-43.3338 44.5501-46.3889 46.0193-46.9516C47.3695-47.3937 49.5933-45.1829 50.3082-46.5497C51.8171-49.4438 50.745-53.0214 47.9255-54.5489C47.2507-54.9133 46.5115-55.1387 45.7502-55.2126Z"/>
  </g>
  <g id="Light-S" transform="matrix(1 0 0 1 1095.17 696)">
   <path class="monochrome-0 multicolor-0:systemRedColor hierarchical-0:secondary SFSymbolsPreviewWireframe" d="M58.3714-26.6953C58.8376-25.8671 59.3037-25.0391 59.8088-25.0391C60.314-25.0391 60.8189-25.8671 61.324-26.6953C61.8292-27.5233 62.3341-28.3514 62.8004-28.1857C65.251-27.3404 67.2983-25.5148 68.5113-23.0933C66.2969-21.2716 63.3442-19.9882 59.498-19.9882C55.9238-19.9882 53.0877-21.106 50.9509-22.8036C52.1164-25.4118 54.331-27.3991 56.9727-28.2685C57.439-28.3927 57.9051-27.5647 58.3714-26.6953Z"/>
   <path class="monochrome-1 multicolor-1:systemYellowColor hierarchical-1:primary SFSymbolsPreviewWireframe" d="M68.6173-76.037C78.3194-76.037 87.6241-72.1629 94.4845-65.2671C101.345-58.3713 105.199-49.0185 105.199-39.2662C105.199-29.514 101.345-20.1612 94.4845-13.2653C87.6241-6.3695 78.3194-2.49544 68.6173-2.49544L25.2206-2.49544L13.9014 8.52793C13.6728 8.74282 13.3864 8.88588 13.0778 8.93953C12.7692 8.99302 12.4517 8.95461 12.1645 8.82913C11.8774 8.70364 11.6329 8.49636 11.4614 8.23295C11.2898 7.96969 11.199 7.66165 11.199 7.34677L11.199-39.8655C11.199-59.8426 27.3103-76.037 47.1845-76.037L68.6173-76.037ZM70.191-34.1204L69.6193-33.8341C66.9491-32.493 63.391-30.7018 59.4838-30.7018C51.2325-30.7018 44.5526-38.7671 44.5526-33.4829C44.5526-28.2385 48.1676-17.9882 59.4838-17.9882C70.8395-17.9882 74.4936-28.2385 74.4936-33.4829C74.4936-36.0946 72.8523-35.4453 70.191-34.1204ZM73.0704-54.2422C72.3171-54.1692 71.5857-53.9464 70.918-53.5862C69.5687-52.8537 68.5624-51.6093 68.1203-50.1267C67.6781-48.6441 67.8366-47.0445 68.5604-45.6801C69.2284-44.3291 71.468-46.5143 72.8041-46.0772C74.2579-45.5211 74.8473-42.5016 76.3405-43.2962C79.1301-44.806 80.1911-48.3418 78.6979-51.1627C78.3464-51.8403 77.8659-52.4408 77.2839-52.9297C76.7019-53.4186 76.0299-53.7863 75.3068-54.0117C74.5836-54.2368 73.8236-54.3153 73.0704-54.2422ZM45.3865-54.2422C44.6333-54.3153 43.8733-54.2368 43.1501-54.0117C42.427-53.7863 41.755-53.4186 41.173-52.9297C40.591-52.4408 40.1104-51.8403 39.759-51.1627C39.0474-49.802 38.8958-48.2122 39.3374-46.7391C39.7789-45.2659 40.7776-44.0287 42.1165-43.2962C43.6096-42.5016 44.1991-45.5211 45.6528-46.0772C46.9887-46.5143 49.1891-44.3291 49.8965-45.6801C51.3895-48.5405 50.3287-52.0765 47.5389-53.5862C46.8713-53.9464 46.1398-54.1692 45.3865-54.2422Z"/>
  </g>
  <g id="Thin-S" transform="matrix(1 0 0 1 799.462 696)">
   <path class="monochrome-0 multicolor-0:systemRedColor hierarchical-0:secondary SFSymbolsPreviewWireframe" d="M57.3823-26.2824C57.8385-25.4737 58.2948-24.6651 58.7891-24.6651C59.2835-24.6651 59.7777-25.4737 60.2721-26.2824L60.4465-26.5662C60.8822-27.2677 61.3144-27.8804 61.717-27.7377C64.1155-26.9122 66.1192-25.1296 67.3065-22.7651C65.1392-20.9863 62.2493-19.7331 58.4849-19.7331C54.9868-19.7331 52.211-20.8245 50.1197-22.4822C51.2604-25.029 53.4278-26.9696 56.0133-27.8185C56.4697-27.9398 56.9259-27.1313 57.3823-26.2824Z"/>
   <path class="monochrome-1 multicolor-1:systemYellowColor hierarchical-1:primary SFSymbolsPreviewWireframe" d="M67.3957-74.416C76.8913-74.416 85.998-70.6331 92.7125-63.8995C99.4269-57.1659 103.199-48.0333 103.199-38.5104C103.199-28.9877 99.4269-19.8549 92.7125-13.1213C85.998-6.38774 76.8913-2.60483 67.3957-2.60483L24.9223-2.60483L13.8439 8.15916C13.6201 8.369 13.3399 8.5087 13.0378 8.56108C12.7358 8.61331 12.4251 8.57581 12.1439 8.45328C11.8629 8.33074 11.6237 8.12834 11.4558 7.87113C11.2879 7.61406 11.199 7.31327 11.199 7.0058L11.199-39.0956C11.199-58.6026 26.9675-74.416 46.4188-74.416L67.3957-74.416ZM68.6575-33.3469L68.2736-33.1546C65.672-31.8512 62.2306-30.1475 58.4565-30.1475C50.3807-30.1475 43.843-38.023 43.843-32.8632C43.843-27.7422 47.3811-17.7331 58.4565-17.7331C69.5705-17.7331 73.1469-27.7422 73.1469-32.8632C73.1469-35.5031 71.4256-34.7308 68.6575-33.3469ZM71.754-53.134C71.0167-53.0627 70.3008-52.8452 69.6474-52.4935C68.3268-51.7782 67.3419-50.5631 66.9092-49.1153C66.4764-47.6676 66.6315-46.1057 67.34-44.7733C67.9937-43.4542 70.1857-45.5879 71.4934-45.1612C72.9162-44.6181 73.4931-41.6696 74.9545-42.4456C77.6848-43.9198 78.7231-47.3725 77.2618-50.127C76.9177-50.7886 76.4474-51.375 75.8778-51.8524C75.3082-52.3298 74.6505-52.6889 73.9428-52.9089C73.235-53.1288 72.4912-53.2054 71.754-53.134ZM44.6591-53.134C43.9219-53.2054 43.1781-53.1288 42.4703-52.9089C41.7626-52.6889 41.1049-52.3298 40.5353-51.8524C39.9657-51.375 39.4953-50.7886 39.1514-50.127C38.4549-48.7983 38.3065-47.2459 38.7387-45.8075C39.1708-44.369 40.1483-43.1609 41.4587-42.4456C42.92-41.6696 43.4969-44.6181 44.9197-45.1612C46.2273-45.5879 48.3808-43.4542 49.0732-44.7733C50.5344-47.5665 49.4962-51.0192 46.7657-52.4935C46.1123-52.8452 45.3964-53.0627 44.6591-53.134Z"/>
  </g>
  <g id="Ultralight-S" transform="matrix(1 0 0 1 503.251 696)">
   <path class="monochrome-0 multicolor-0:systemRedColor hierarchical-0:secondary SFSymbolsPreviewWireframe" d="M56.8827-26.4704C57.334-25.6714 57.7852-24.8726 58.2742-24.8726C58.7632-24.8726 59.2521-25.6714 59.7411-26.4704C60.2301-27.2692 60.7189-28.068 61.1703-27.9082C63.5427-27.0927 65.5246-25.3315 66.699-22.9955C64.5553-21.2381 61.6968-20 57.9733-20C54.5132-20 51.7676-21.0783 49.699-22.716C50.8273-25.2321 52.9712-27.1493 55.5286-27.988C55.98-28.1079 56.4313-27.3091 56.8827-26.4704Z"/>
   <path class="monochrome-1 multicolor-1:systemYellowColor hierarchical-1:primary SFSymbolsPreviewWireframe" d="M66.7848-74C76.1772-74 85.185-70.2627 91.8264-63.6102C98.4679-56.9577 102.199-47.9351 102.199-38.527C102.199-29.119 98.4679-20.0963 91.8264-13.4438C85.185-6.79135 76.1772-3.05402 66.7848-3.05402L24.7731-3.05402L13.8152 7.58028C13.5938 7.7876 13.3166 7.9256 13.0178 7.97736C12.7191 8.02896 12.4118 7.99191 12.1337 7.87085C11.8557 7.74979 11.6191 7.54983 11.453 7.29571C11.2869 7.04175 11.199 6.74458 11.199 6.44081L11.199-39.1051C11.199-58.3771 26.7961-74 46.036-74L66.7848-74ZM57.9428-30.2648C54.0898-30.2648 50.5907-32.0751 48.0006-33.3772L47.6281-33.5639C45.067-34.8412 43.4881-35.4667 43.4881-32.9479C43.4881-27.8885 46.9878-18 57.9428-18C68.9361-18 72.4736-27.8885 72.4736-32.9479C72.4736-38.0455 65.969-30.2648 57.9428-30.2648ZM71.0958-52.9744C70.3665-52.904 69.6584-52.689 69.0121-52.3416C67.7059-51.6349 66.7317-50.4345 66.3036-49.0042C65.8756-47.5739 66.029-46.0308 66.7297-44.7145C67.3764-43.4112 69.5446-45.5193 70.838-45.0976C72.2453-44.5611 72.816-41.6482 74.2615-42.4148C76.9621-43.8713 77.9892-47.2823 76.5437-50.0036C76.2034-50.6573 75.7382-51.2367 75.1748-51.7082C74.6114-52.1799 73.9608-52.5346 73.2608-52.752C72.5607-52.9693 71.825-53.045 71.0958-52.9744ZM44.2954-52.9744C43.5663-53.045 42.8305-52.9693 42.1304-52.752C41.4304-52.5346 40.7798-52.1799 40.2164-51.7082C39.653-51.2367 39.1877-50.6573 38.8475-50.0036C38.1587-48.6909 38.0119-47.1573 38.4393-45.7362C38.8668-44.315 39.8336-43.1215 41.1297-42.4148C42.5752-41.6482 43.1459-44.5611 44.5532-45.0976C45.8465-45.5193 47.9767-43.4112 48.6615-44.7145C50.1068-47.474 49.0799-50.8851 46.3791-52.3416C45.7328-52.689 45.0247-52.904 44.2954-52.9744Z"/>
  </g>
 </g>
</svg>
